{"glyphs":{"0":{"ha":961,"x_min":103,"x_max":925,"o":"m 731 485 q 736 645 742 574 q 710 767 731 717 q 652 844 689 817 q 563 871 615 871 q 466 844 510 871 q 389 767 422 817 q 333 645 356 717 q 300 485 311 574 q 294 325 289 396 q 321 204 300 254 q 378 128 342 154 q 468 101 415 101 q 564 128 521 101 q 640 204 607 154 q 697 325 674 254 q 731 485 719 396 m 453 -25 q 294 10 363 -25 q 181 113 225 46 q 120 274 138 179 q 117 485 103 368 q 170 694 131 600 q 270 856 210 789 q 409 960 331 924 q 579 997 488 997 q 749 956 679 997 q 858 843 818 914 q 912 679 899 772 q 913 485 925 586 q 860 281 899 375 q 763 119 822 188 q 624 13 703 51 q 453 -25 546 -25 z "},"1":{"ha":443,"x_min":79,"x_max":468,"o":"m 349 0 l 188 0 l 283 789 l 122 708 l 79 811 l 401 974 l 468 974 l 349 0 z "},"2":{"ha":760,"x_min":68,"x_max":769,"o":"m 763 729 q 703 579 754 656 q 585 429 653 503 q 445 286 518 356 q 319 156 372 217 l 296 132 l 328 136 l 706 136 l 689 0 l 68 0 l 76 71 q 163 185 113 128 q 267 299 213 242 q 376 411 322 356 q 474 519 429 467 q 547 622 518 572 q 582 715 576 671 q 547 824 590 786 q 433 863 504 863 q 353 853 399 863 q 250 817 308 843 l 219 932 q 351 977 290 965 q 464 989 413 989 q 596 972 538 989 q 694 921 654 954 q 751 839 733 888 q 763 729 769 790 z "},"3":{"ha":733,"x_min":25,"x_max":711,"o":"m 706 763 q 654 643 697 699 q 536 547 611 588 l 500 535 l 531 528 q 595 490 565 514 q 645 434 625 467 q 674 362 665 401 q 678 276 683 322 q 635 160 669 214 q 548 68 601 107 q 426 7 494 29 q 282 -15 357 -15 q 141 3 204 -15 q 25 49 78 22 l 81 163 q 278 111 176 111 q 359 124 321 111 q 427 160 397 138 q 476 214 457 183 q 500 279 496 244 q 490 360 506 328 q 440 412 474 393 q 357 438 406 431 q 250 446 308 446 l 250 547 q 349 588 301 568 q 435 630 397 607 q 497 682 472 653 q 525 749 521 711 q 494 832 531 801 q 400 863 458 863 q 313 853 360 863 q 201 815 265 843 l 172 932 q 316 977 251 965 q 439 989 381 989 q 553 973 501 989 q 642 928 606 957 q 694 856 678 899 q 706 763 711 814 z "},"4":{"ha":826,"x_min":69,"x_max":810,"o":"m 83 319 l 586 974 l 778 974 l 697 328 l 810 328 l 796 204 l 683 204 l 658 0 l 497 0 l 586 735 l 594 776 l 569 739 l 288 374 q 277 362 282 367 q 267 350 272 357 l 244 326 q 258 328 251 328 q 272 329 265 328 l 351 329 q 401 317 381 329 q 437 285 422 304 q 460 244 451 267 q 474 204 469 222 l 69 204 l 83 319 z "},"5":{"ha":744,"x_min":46,"x_max":746,"o":"m 357 838 q 337 736 346 786 q 317 635 328 686 l 304 586 q 348 592 328 589 q 386 594 368 594 q 535 570 472 594 q 638 505 599 546 q 694 409 678 464 q 703 293 711 354 q 660 169 694 226 q 572 72 626 113 q 446 7 518 31 q 290 -17 374 -17 q 174 -1 238 -17 q 46 51 110 14 l 101 164 q 214 122 164 133 q 304 110 264 110 q 393 126 354 110 q 460 170 432 143 q 505 230 489 197 q 525 296 521 263 q 519 372 531 339 q 481 426 507 404 q 416 458 454 447 q 331 469 378 469 q 247 464 294 469 q 140 447 199 458 l 242 974 l 746 974 l 729 838 l 357 838 z "},"6":{"ha":883,"x_min":131,"x_max":858,"o":"m 679 858 q 544 827 606 858 q 436 742 482 796 q 360 615 390 688 q 321 457 331 542 q 315 338 314 400 q 332 223 315 275 q 384 138 349 171 q 481 104 419 104 q 547 119 515 104 q 603 162 578 135 q 644 226 628 189 q 667 307 661 264 q 645 438 676 394 q 564 481 614 481 q 517 475 544 481 q 472 476 492 471 q 435 493 451 482 q 408 519 419 504 q 389 547 397 533 q 505 594 458 582 q 592 606 551 606 q 702 586 651 606 q 788 529 753 567 q 838 435 822 492 q 846 307 854 379 q 807 188 838 246 q 727 83 776 129 q 613 8 678 36 q 469 -21 547 -21 q 295 19 364 -21 q 189 124 226 58 q 141 276 151 190 q 142 454 131 363 q 200 651 154 556 q 318 821 246 747 q 486 939 390 894 q 694 983 582 983 q 772 976 729 983 q 858 951 814 968 l 804 836 q 737 853 768 849 q 679 858 706 858 z "},"7":{"ha":697,"x_min":154,"x_max":775,"o":"m 335 0 l 158 0 q 223 215 188 113 q 303 412 258 317 q 403 597 349 507 q 528 778 458 688 q 551 806 539 792 q 575 833 563 819 l 154 832 l 172 974 l 775 974 l 760 850 q 632 697 693 776 q 517 517 571 617 q 416 290 463 417 q 335 0 369 164 z "},"8":{"ha":894,"x_min":133,"x_max":868,"o":"m 468 107 q 604 147 551 107 q 664 247 657 188 q 652 319 669 289 q 603 373 635 350 q 531 415 572 396 q 445 455 489 435 q 361 499 401 475 q 290 555 321 522 q 244 632 260 588 q 236 738 229 676 q 274 844 243 797 q 353 924 306 892 q 459 973 400 956 q 581 990 518 990 q 701 973 646 990 q 794 924 756 956 q 850 844 832 892 q 861 738 868 797 q 844 679 857 710 q 811 617 832 649 q 763 556 790 586 q 703 501 736 526 q 806 405 767 465 q 832 247 844 344 q 791 134 824 183 q 707 51 758 85 q 590 -1 656 17 q 453 -18 525 -18 q 318 -1 379 -18 q 215 51 257 17 q 153 134 174 85 q 142 247 133 183 q 153 297 144 271 q 179 350 163 322 q 222 409 196 378 q 289 476 249 440 q 332 401 317 443 q 326 317 347 360 q 313 283 317 297 q 306 254 308 269 q 343 145 297 183 q 468 107 389 107 m 404 738 q 415 678 400 703 q 456 633 429 653 q 519 594 483 613 q 596 558 556 576 q 664 640 639 600 q 694 722 689 681 q 690 786 699 760 q 663 830 681 813 q 619 856 644 847 q 565 864 593 864 q 508 856 536 864 q 459 831 481 847 q 423 792 438 815 q 404 738 408 768 z "},"9":{"ha":882,"x_min":154,"x_max":882,"o":"m 332 113 q 469 143 407 113 q 577 228 531 174 q 653 356 624 282 q 693 515 682 429 q 699 633 700 571 q 681 747 697 694 q 628 832 664 799 q 533 865 593 865 q 467 850 499 865 q 410 808 435 835 q 368 744 385 781 q 346 664 351 707 q 347 588 340 619 q 367 533 353 556 q 403 501 382 511 q 449 490 424 490 q 468 492 456 490 q 494 496 481 493 q 540 494 519 500 q 576 478 560 489 q 603 451 592 467 q 624 422 615 436 q 507 377 554 389 q 421 365 460 365 q 310 385 360 365 q 225 442 260 404 q 174 535 190 479 q 167 664 158 590 q 204 783 174 724 q 285 888 235 842 q 401 963 335 935 q 544 992 467 992 q 717 952 649 992 q 824 847 786 913 q 872 695 861 781 q 871 518 882 610 q 813 319 858 415 q 694 149 767 224 q 526 31 622 75 q 317 -14 429 -14 q 240 -6 282 -14 q 154 19 197 1 l 207 135 q 275 117 244 122 q 332 113 306 113 z "},"b":{"ha":832,"x_min":114,"x_max":822,"o":"m 408 686 q 490 716 449 706 q 565 729 532 726 q 678 705 628 732 q 761 629 728 678 q 808 515 794 581 q 814 376 822 449 q 768 219 803 292 q 678 94 733 147 q 552 12 624 42 q 396 -18 481 -18 q 252 -1 319 -18 q 114 57 185 17 l 236 1053 l 403 1043 l 290 125 q 352 112 322 115 q 411 108 382 108 q 492 128 454 108 q 560 184 531 149 q 608 269 589 219 q 635 376 628 318 q 636 466 640 424 q 617 540 632 508 q 577 588 603 571 q 514 601 551 606 q 450 623 474 597 q 408 686 426 649 z "},"o":{"ha":824,"x_min":82,"x_max":819,"o":"m 274 360 q 274 258 267 304 q 299 179 281 213 q 349 128 318 146 q 421 110 379 110 q 501 129 465 110 q 563 183 536 149 q 606 263 589 217 q 629 360 622 308 q 603 540 643 472 q 482 608 563 608 q 345 540 401 608 q 274 360 289 472 m 93 360 q 147 528 106 457 q 247 644 189 599 q 370 713 304 690 q 497 735 436 735 q 642 706 579 735 q 745 628 704 678 q 803 509 786 578 q 810 360 819 440 q 760 200 799 269 q 665 82 721 131 q 541 8 608 33 q 406 -17 474 -17 q 272 8 333 -17 q 167 81 210 33 q 103 199 124 129 q 93 360 82 269 z "},"e":{"ha":772,"x_min":103,"x_max":761,"o":"m 453 440 l 596 440 q 601 506 606 475 q 583 561 597 538 q 544 599 568 585 q 488 613 519 613 q 419 598 453 613 q 358 553 386 583 q 309 478 329 524 q 281 372 289 433 q 283 263 274 311 q 315 181 292 215 q 373 128 338 146 q 454 110 408 110 q 549 122 503 110 q 660 161 596 133 l 690 46 q 547 -3 614 11 q 421 -17 481 -17 q 269 15 332 -17 q 169 101 207 47 q 117 224 131 154 q 113 368 103 293 q 158 521 122 453 q 246 637 193 589 q 367 710 299 685 q 513 735 435 735 q 644 703 588 735 q 731 618 700 672 q 761 491 761 564 q 722 335 761 418 l 328 335 q 380 410 347 379 q 453 440 413 440 z "},"h":{"ha":831,"x_min":107,"x_max":796,"o":"m 556 0 l 618 514 q 610 580 624 554 q 561 606 597 606 q 522 599 542 606 q 482 596 503 593 q 438 617 456 596 q 407 668 421 639 q 532 722 482 708 q 621 735 582 735 q 692 722 658 735 q 749 683 725 710 q 785 613 774 656 q 789 511 796 571 l 726 0 l 556 0 m 275 0 l 107 0 l 236 1053 l 403 1043 l 275 0 z "},"i":{"ha":376,"x_min":103,"x_max":410,"o":"m 199 926 q 238 1001 206 971 q 314 1031 271 1031 q 384 1001 358 1031 q 403 926 410 971 q 365 853 397 883 q 288 824 332 824 q 219 853 244 824 q 199 926 193 883 m 274 0 l 103 0 l 190 718 l 361 718 l 274 0 z "},"l":{"ha":376,"x_min":110,"x_max":406,"o":"m 406 1043 l 278 0 l 110 0 l 239 1053 l 406 1043 z "}," ":{"ha":357,"x_min":0,"x_max":0,"o":""},"m":{"ha":1276,"x_min":110,"x_max":1238,"o":"m 999 0 l 1061 514 q 1051 580 1067 554 q 996 606 1036 606 q 951 599 975 606 q 906 596 928 593 q 858 618 878 596 q 825 669 838 640 q 958 720 904 706 q 1057 735 1013 735 q 1129 722 1094 735 q 1189 683 1164 710 q 1226 613 1214 656 q 1231 511 1238 571 l 1168 0 l 999 0 m 554 0 l 617 514 q 610 580 622 554 q 560 606 597 606 q 517 600 538 606 q 474 597 496 594 q 428 619 446 597 q 396 671 410 642 q 526 721 475 707 q 622 735 578 735 q 693 722 660 735 q 750 683 726 710 q 784 613 774 656 q 788 511 794 571 l 725 0 l 554 0 m 175 711 l 314 718 q 349 644 343 681 q 349 565 354 607 l 281 0 l 110 0 l 175 536 q 180 619 179 575 q 175 711 181 663 z "},"j":{"ha":401,"x_min":-74,"x_max":433,"o":"m 382 718 l 301 63 q 276 -51 293 0 q 223 -149 258 -101 q 131 -244 188 -197 q -11 -346 74 -292 l -74 -254 q 22 -172 -15 -208 q 82 -101 60 -136 q 115 -26 104 -65 q 132 63 125 13 l 213 718 l 382 718 m 221 926 q 260 1001 228 971 q 336 1032 292 1032 q 407 1001 381 1032 q 426 926 433 971 q 388 853 421 882 q 310 824 354 824 q 240 853 265 824 q 221 926 215 882 z "},"p":{"ha":850,"x_min":69,"x_max":843,"o":"m 833 354 q 790 210 824 276 q 706 94 756 143 q 597 17 657 46 q 476 -11 538 -11 q 409 -6 443 -11 q 329 14 375 -1 q 383 83 353 57 q 453 111 413 110 q 587 177 536 114 q 653 354 638 240 q 653 453 658 407 q 632 534 649 500 q 588 588 615 568 q 521 608 560 608 q 339 508 435 608 l 236 -335 l 69 -325 l 165 458 q 178 590 174 531 q 175 711 182 649 l 304 718 q 330 688 321 706 q 346 646 339 669 l 344 619 l 367 647 q 474 715 424 696 q 567 735 524 735 q 695 706 640 735 q 784 626 750 676 q 831 505 818 575 q 833 354 843 435 z "},"r":{"ha":543,"x_min":103,"x_max":608,"o":"m 167 711 l 296 718 q 318 675 310 703 q 328 613 326 647 l 325 582 l 343 613 q 427 699 376 667 q 528 731 478 731 q 608 715 563 731 l 571 578 q 528 587 544 585 q 496 589 511 589 q 373 527 426 589 q 306 353 319 465 l 263 0 l 103 0 l 160 476 q 170 592 167 533 q 167 711 174 650 z "},"u":{"ha":838,"x_min":113,"x_max":800,"o":"m 351 718 l 289 204 q 297 138 283 164 q 349 113 310 113 q 385 118 365 113 q 428 124 404 124 q 478 102 458 125 q 514 51 497 79 q 385 -3 438 11 q 288 -17 332 -17 q 216 -4 250 -17 q 158 35 182 8 q 124 105 135 63 q 119 207 113 147 l 182 718 l 351 718 m 736 7 l 597 0 q 563 74 569 38 q 561 153 556 111 l 631 718 l 800 718 l 735 182 q 736 7 724 103 z "},"w":{"ha":1204,"x_min":128,"x_max":1269,"o":"m 935 0 l 754 0 l 588 718 l 768 718 l 865 151 l 1100 718 l 1269 708 l 935 0 m 564 175 l 469 0 l 293 0 l 128 718 l 307 718 l 404 151 l 418 190 l 567 488 q 590 426 581 463 q 599 347 599 389 q 592 260 600 304 q 564 175 585 215 z "},"x":{"ha":706,"x_min":14,"x_max":749,"o":"m 276 114 l 194 0 l 14 0 l 265 308 q 286 269 276 292 q 300 222 296 247 q 299 168 304 196 q 276 114 294 140 m 683 0 l 493 0 q 403 176 449 89 q 310 351 357 264 l 114 718 l 306 718 l 403 499 l 407 469 l 422 499 l 574 718 l 749 708 l 475 360 l 683 0 z "},"q":{"ha":828,"x_min":101,"x_max":808,"o":"m 513 47 q 433 8 472 24 q 360 -11 393 -8 q 244 11 294 -17 q 160 89 193 39 q 115 205 128 139 q 110 342 101 271 q 155 497 119 425 q 247 622 190 569 q 378 703 303 674 q 542 733 453 733 q 599 731 571 733 q 659 724 628 729 q 727 711 690 719 q 808 690 764 703 l 682 -335 l 518 -325 l 631 594 q 576 604 601 601 q 531 607 551 607 q 368 535 431 607 q 290 342 306 464 q 287 257 285 299 q 302 183 289 215 q 340 134 315 151 q 406 121 365 117 q 467 104 443 125 q 513 47 490 83 z "},".":{"ha":396,"x_min":89,"x_max":306,"o":"m 94 81 q 133 156 100 125 q 210 186 165 186 q 280 156 254 186 q 300 81 306 125 q 262 8 294 38 q 185 -21 229 -21 q 115 8 140 -21 q 94 81 89 38 z "},":":{"ha":415,"x_min":113,"x_max":392,"o":"m 181 592 q 219 665 186 635 q 296 696 251 696 q 366 665 340 696 q 386 592 392 635 q 348 518 381 547 q 271 489 315 489 q 201 518 226 489 q 181 592 175 547 m 118 81 q 156 156 124 125 q 233 186 189 186 q 303 156 278 186 q 324 81 329 125 q 285 8 318 38 q 208 -21 253 -21 q 138 8 164 -21 q 118 81 113 38 z "},"!":{"ha":488,"x_min":61,"x_max":371,"o":"m 67 82 q 105 156 72 126 q 182 186 138 186 q 252 156 226 186 q 272 82 278 126 q 234 9 267 38 q 157 -19 201 -19 q 87 9 113 -19 q 67 82 61 38 m 201 1010 l 371 1010 l 258 296 l 136 296 l 201 1010 z "},"\"":{"ha":554,"x_min":143,"x_max":599,"o":"m 411 711 l 449 1010 l 599 1010 l 585 901 q 568 823 581 861 q 535 757 556 785 q 483 715 514 729 q 411 711 453 701 m 143 711 l 181 1010 l 332 1010 l 318 901 q 301 823 314 861 q 267 757 289 785 q 215 715 246 729 q 143 711 185 701 z "},"#":{"ha":1242,"x_min":125,"x_max":1165,"o":"m 638 0 q 666 94 651 47 q 696 188 681 140 l 710 221 l 461 219 q 486 262 472 242 q 521 297 500 282 q 570 321 542 313 q 638 329 599 329 l 738 329 l 825 610 l 843 650 l 550 649 l 347 0 l 211 0 q 241 95 226 47 q 271 190 256 143 l 285 221 l 125 219 l 138 328 l 311 328 l 403 614 l 417 650 l 260 649 l 274 758 l 449 758 l 515 975 l 651 975 l 583 758 l 874 758 l 942 975 l 1078 975 l 1010 758 l 1165 758 l 1151 649 l 975 649 l 875 329 l 1029 329 l 1015 219 l 843 219 l 774 0 l 638 0 z "},"%":{"ha":1131,"x_min":92,"x_max":1175,"o":"m 1018 265 q 1010 403 1029 357 q 946 449 990 449 q 873 403 904 449 q 831 265 842 357 q 840 126 819 172 q 901 81 860 81 q 976 126 946 81 q 1018 265 1007 172 m 1158 265 q 1069 56 1142 131 q 889 -18 996 -18 q 729 56 783 -18 q 692 265 675 129 q 781 474 708 400 q 958 547 853 547 q 1120 474 1065 547 q 1158 265 1175 400 m 435 714 q 426 851 446 806 q 364 896 407 896 q 290 851 321 896 q 247 714 258 806 q 256 575 236 621 q 318 529 275 529 q 392 575 361 529 q 435 714 424 621 m 575 714 q 485 505 558 579 q 307 431 413 431 q 146 504 200 431 q 108 714 92 578 q 197 922 124 849 q 376 996 269 996 q 536 922 482 996 q 575 714 590 849 m 203 0 l 931 975 l 1063 975 l 335 0 l 203 0 z "},"(":{"ha":560,"x_min":260,"x_max":681,"o":"m 431 411 q 411 212 417 296 q 415 63 406 128 q 454 -56 425 -3 q 540 -161 483 -108 l 453 -244 q 338 -130 379 -190 q 278 8 296 -69 q 263 183 260 85 q 282 411 265 281 q 319 639 297 540 q 376 814 340 738 q 469 951 413 890 q 614 1065 526 1011 l 681 983 q 569 876 611 929 q 500 758 526 824 q 459 610 474 693 q 431 411 444 526 z "},")":{"ha":557,"x_min":-19,"x_max":400,"o":"m 231 411 q 251 610 244 526 q 247 758 257 693 q 206 876 236 824 q 119 983 176 929 l 207 1065 q 322 951 281 1011 q 382 814 364 890 q 397 639 400 738 q 379 411 394 540 q 341 183 363 281 q 283 8 319 85 q 190 -130 247 -69 q 46 -244 133 -190 l -19 -161 q 92 -56 50 -108 q 160 63 135 -3 q 201 212 186 128 q 231 411 217 296 z "},"*":{"ha":736,"x_min":156,"x_max":725,"o":"m 447 819 l 556 1032 l 663 964 q 560 855 597 894 q 497 789 524 815 l 725 824 l 710 690 q 632 702 665 697 q 572 711 599 707 q 526 719 546 715 q 488 726 506 722 l 610 551 l 486 485 l 432 697 l 325 485 l 218 551 l 383 728 l 156 692 l 171 825 l 389 790 l 267 964 l 392 1032 l 447 819 z "},"+":{"ha":789,"x_min":110,"x_max":774,"o":"m 110 365 l 124 482 l 382 482 l 417 758 l 547 758 l 513 482 l 774 482 l 760 365 l 499 365 l 464 86 l 333 86 l 368 365 l 110 365 z "},"<":{"ha":851,"x_min":92,"x_max":863,"o":"m 301 375 l 788 156 l 769 0 l 92 332 l 104 435 l 863 767 l 844 613 q 574 501 707 557 q 303 393 440 446 l 265 383 l 301 375 z "},"^":{"ha":872,"x_min":125,"x_max":821,"o":"m 524 774 l 278 292 l 125 292 l 504 1010 l 619 1010 l 821 292 l 671 292 l 551 742 q 547 757 549 749 q 543 774 546 765 l 538 814 l 524 774 z "},"`":{"ha":272,"x_min":151,"x_max":369,"o":"m 235 876 l 151 1010 l 300 1010 l 369 836 q 292 834 326 825 q 235 876 257 843 z "},"_":{"ha":690,"x_min":22,"x_max":653,"o":"m 638 -115 l 22 -115 l 38 0 l 653 0 l 638 -115 z "},"|":{"ha":440,"x_min":110,"x_max":449,"o":"m 261 -407 l 110 -407 l 297 1126 l 449 1126 l 261 -407 z "},"/":{"ha":461,"x_min":-15,"x_max":601,"o":"m 129 -86 l -15 -86 l 456 1010 l 601 1010 l 129 -86 z "},"'":{"ha":265,"x_min":138,"x_max":324,"o":"m 138 711 l 175 1010 l 324 1010 l 310 901 q 293 823 306 861 q 260 757 281 785 q 209 715 239 729 q 138 711 179 701 z "},",":{"ha":324,"x_min":57,"x_max":246,"o":"m 57 -162 l 94 136 l 246 136 l 232 28 q 215 -51 228 -12 q 181 -117 203 -89 q 129 -158 160 -144 q 57 -162 99 -172 z "},"-":{"ha":521,"x_min":107,"x_max":540,"o":"m 526 364 l 107 364 l 121 482 l 540 482 l 526 364 z "},"A":{"ha":985,"x_min":44,"x_max":940,"o":"m 531 1010 l 701 1010 l 940 0 l 758 0 l 592 775 l 586 822 l 569 774 l 389 381 l 369 353 l 389 356 l 525 356 q 573 344 553 356 q 606 314 593 332 q 628 273 619 296 q 640 229 636 250 l 321 229 l 217 0 l 44 0 l 531 1010 z "},"B":{"ha":922,"x_min":115,"x_max":900,"o":"m 490 111 q 502 110 497 110 q 514 110 507 110 q 583 122 550 110 q 643 158 617 135 q 687 213 669 181 q 710 283 704 244 q 700 364 715 329 q 654 422 685 399 q 579 458 624 446 q 482 471 535 471 l 343 471 l 286 0 l 115 0 l 238 996 q 329 1010 288 1004 q 407 1021 371 1017 q 478 1026 443 1025 q 550 1028 513 1028 q 708 1007 642 1028 q 817 949 775 986 q 877 862 860 913 q 888 750 894 811 q 874 698 885 725 q 844 645 863 671 q 803 597 826 619 q 753 558 781 575 l 710 539 l 747 529 q 861 431 822 497 q 890 285 900 364 q 853 177 883 231 q 774 81 824 124 q 658 12 725 39 q 513 -15 592 -15 q 475 -15 493 -15 q 437 -11 457 -14 q 394 -3 417 -8 q 342 8 371 1 q 368 45 353 26 q 401 79 383 64 q 442 103 419 94 q 490 111 464 113 m 357 588 l 496 588 q 574 599 538 588 q 640 633 611 611 q 688 684 669 654 q 711 749 707 714 q 706 805 714 778 q 676 853 697 832 q 620 888 656 875 q 535 901 585 901 q 465 899 497 901 q 394 893 433 897 l 357 588 z "},"D":{"ha":1019,"x_min":118,"x_max":1074,"o":"m 515 -17 q 438 -12 474 -17 q 344 7 403 -8 q 370 44 356 25 q 403 78 385 63 q 444 103 422 93 q 493 111 467 113 q 506 110 501 110 q 517 110 510 110 q 653 143 592 110 q 761 232 715 176 q 835 359 807 288 q 874 507 864 431 q 871 669 885 596 q 815 793 857 742 q 704 872 774 844 q 533 900 635 900 q 466 897 500 900 q 399 890 432 894 l 290 0 l 118 0 l 239 993 q 406 1019 324 1011 q 549 1028 488 1028 q 787 992 685 1028 q 954 890 889 957 q 1047 726 1019 824 q 1058 507 1074 629 q 996 300 1044 396 q 874 134 947 204 q 709 24 801 64 q 515 -17 617 -17 z "},"E":{"ha":811,"x_min":118,"x_max":836,"o":"m 549 592 l 738 592 l 722 468 l 401 468 q 425 511 411 489 q 457 551 439 533 q 498 581 475 569 q 549 592 521 592 m 118 0 l 242 1010 l 836 1010 l 821 883 l 400 883 l 307 126 l 750 126 l 735 0 l 118 0 z "},"F":{"ha":806,"x_min":118,"x_max":836,"o":"m 549 592 l 738 592 l 722 468 l 401 468 q 425 511 411 489 q 457 551 439 533 q 498 581 475 569 q 549 592 521 592 m 118 0 l 242 1010 l 836 1010 l 821 883 l 400 883 l 292 0 l 118 0 z "},"I":{"ha":406,"x_min":118,"x_max":411,"o":"m 411 1010 l 288 0 l 118 0 l 242 1010 l 411 1010 z "},"J":{"ha":500,"x_min":-35,"x_max":511,"o":"m 511 1010 l 408 178 q 367 16 397 83 q 290 -105 338 -51 q 176 -204 242 -158 q 28 -301 111 -250 l -35 -203 q 68 -124 22 -160 q 148 -46 114 -87 q 203 49 182 -4 q 235 178 225 103 l 338 1010 l 511 1010 z "},"K":{"ha":960,"x_min":118,"x_max":1011,"o":"m 292 0 l 118 0 l 242 1010 l 415 1010 l 292 0 m 1011 1010 l 649 604 l 935 0 l 733 0 l 546 460 l 540 490 l 521 463 l 410 338 q 417 467 399 396 q 476 599 435 539 q 640 806 547 701 q 819 1010 733 910 l 1011 1010 z "},"L":{"ha":732,"x_min":118,"x_max":693,"o":"m 118 0 l 242 1010 l 417 1010 l 308 128 l 693 128 q 685 64 689 96 q 678 0 681 32 l 118 0 z "},"M":{"ha":1347,"x_min":100,"x_max":1268,"o":"m 100 0 l 326 1010 l 547 1010 l 690 218 l 694 171 l 711 218 l 1047 1010 l 1268 1010 l 1246 0 l 1085 0 l 1115 779 l 1119 843 l 1094 779 l 761 14 l 588 14 l 439 781 l 429 843 l 261 0 l 100 0 z "},"P":{"ha":875,"x_min":118,"x_max":904,"o":"m 896 717 q 853 594 888 649 q 770 501 819 540 q 660 438 721 461 q 536 410 599 415 q 469 409 504 407 q 397 422 433 411 q 421 460 407 440 q 451 494 435 479 q 488 520 468 510 q 532 532 508 531 q 594 548 563 533 q 651 588 625 563 q 694 646 676 613 q 717 717 713 679 q 710 789 721 756 q 674 847 699 822 q 614 887 650 872 q 533 901 578 901 q 467 899 494 901 q 401 893 440 897 l 293 0 l 118 1 l 240 999 q 332 1013 292 1007 q 408 1023 372 1019 q 477 1028 443 1026 q 549 1029 511 1029 q 700 1006 632 1029 q 815 942 768 983 q 883 844 861 901 q 896 717 904 786 z "},"R":{"ha":931,"x_min":118,"x_max":904,"o":"m 896 724 q 838 578 886 640 q 719 479 790 517 l 681 465 q 759 385 735 435 q 796 275 783 336 q 817 143 808 214 q 850 0 826 72 l 671 0 q 644 119 651 56 q 626 241 636 182 q 597 349 617 300 q 536 424 578 397 q 492 424 515 421 q 446 426 469 424 q 399 436 422 429 q 422 474 408 454 q 453 509 436 493 q 490 535 469 525 q 533 547 510 546 q 595 563 564 549 q 652 601 626 578 q 695 655 678 624 q 717 724 713 686 q 709 794 721 761 q 672 851 697 826 q 612 888 647 875 q 533 901 576 901 q 499 901 514 901 q 469 899 483 900 q 438 897 454 899 q 401 892 422 894 l 293 0 l 118 0 l 240 997 q 332 1012 292 1006 q 408 1022 372 1018 q 477 1028 443 1026 q 549 1029 511 1029 q 699 1007 631 1029 q 813 945 767 985 q 882 849 860 906 q 896 724 904 792 z "},"T":{"ha":747,"x_min":118,"x_max":858,"o":"m 393 883 l 118 883 l 133 1010 l 858 1010 l 843 883 l 567 883 l 458 0 l 285 0 l 393 883 z "},"V":{"ha":907,"x_min":138,"x_max":1022,"o":"m 547 0 l 368 0 l 138 1010 l 322 1010 l 476 219 l 479 169 l 496 218 l 843 1010 l 1022 1010 l 547 0 z "},"W":{"ha":1425,"x_min":161,"x_max":1511,"o":"m 744 996 l 935 996 l 1031 239 l 1035 165 l 1056 236 l 1344 1010 l 1511 1010 l 1108 0 l 928 0 l 819 760 l 815 817 l 797 761 l 504 0 l 318 0 l 161 1010 l 332 1010 l 432 239 l 433 165 l 458 239 l 744 996 z "},"n":{"ha":813,"x_min":90,"x_max":782,"o":"m 542 0 l 604 514 q 596 580 610 554 q 543 606 582 606 q 499 599 521 606 q 454 596 478 593 q 410 618 426 596 q 378 667 393 640 q 506 721 453 707 q 603 735 558 735 q 675 722 640 735 q 734 683 710 710 q 770 613 758 656 q 775 511 782 571 l 713 0 l 542 0 m 154 711 l 294 718 q 329 644 324 681 q 329 565 335 607 l 261 0 l 90 0 l 156 536 q 154 711 164 617 z "},"?":{"ha":810,"x_min":235,"x_max":778,"o":"m 240 82 q 279 156 246 126 q 357 186 313 186 q 426 156 400 186 q 447 82 453 126 q 408 9 442 38 q 332 -19 375 -19 q 261 9 288 -19 q 240 82 235 38 m 500 1024 q 618 1008 565 1024 q 707 964 671 993 q 760 894 743 935 q 772 804 778 854 q 740 708 765 751 q 681 626 715 665 q 606 550 646 586 q 532 474 567 514 q 472 392 497 435 q 440 296 446 349 l 301 296 q 333 415 310 364 q 388 508 357 467 q 453 583 419 549 q 517 648 488 617 q 569 712 547 679 q 594 783 590 744 q 567 865 601 833 q 471 896 532 896 q 388 888 431 896 q 279 850 344 879 l 249 967 q 383 1013 325 1001 q 500 1024 442 1024 z "},";":{"ha":415,"x_min":115,"x_max":392,"o":"m 115 -162 l 153 136 l 304 136 l 290 28 q 274 -51 286 -12 q 240 -117 261 -89 q 188 -158 218 -144 q 115 -162 157 -172 m 181 592 q 219 665 186 635 q 296 696 251 696 q 366 665 340 696 q 386 592 392 635 q 348 518 381 547 q 271 489 315 489 q 201 518 226 489 q 181 592 175 547 z "},"=":{"ha":842,"x_min":121,"x_max":829,"o":"m 158 539 l 174 658 l 829 658 l 814 539 l 158 539 m 121 232 l 136 351 l 792 351 l 776 232 l 121 232 z "},"[":{"ha":621,"x_min":147,"x_max":708,"o":"m 147 -276 l 313 1071 l 708 1071 l 693 943 l 456 943 l 321 -149 l 560 -149 q 552 -212 557 -181 q 543 -276 547 -244 l 147 -276 z "},"]":{"ha":626,"x_min":28,"x_max":590,"o":"m 590 1071 l 425 -276 l 28 -276 q 36 -212 32 -244 q 43 -149 40 -181 l 281 -149 l 415 943 l 178 943 l 193 1071 l 590 1071 z "},"\\":{"ha":485,"x_min":125,"x_max":479,"o":"m 479 -86 l 328 -86 l 125 1010 l 276 1010 l 479 -86 z "},"{":{"ha":560,"x_min":143,"x_max":679,"o":"m 264 263 q 256 306 265 288 q 231 340 247 325 q 192 364 214 354 q 143 378 169 374 l 154 469 q 251 508 208 479 q 306 585 294 536 q 347 741 322 671 q 407 869 371 811 q 493 974 443 926 q 613 1065 543 1022 l 679 983 q 591 904 628 943 q 528 821 554 865 q 485 725 503 776 q 456 610 468 674 q 411 508 444 551 q 331 436 378 465 l 296 421 l 326 406 q 381 350 360 382 q 406 278 401 318 q 410 243 408 261 q 410 206 411 225 q 412 92 407 143 q 431 -3 417 40 q 472 -85 446 -46 q 539 -161 499 -124 l 451 -244 q 351 -150 390 -200 q 291 -40 313 -100 q 264 95 269 21 q 264 263 258 169 z "},"}":{"ha":582,"x_min":88,"x_max":628,"o":"m 468 263 q 427 95 451 169 q 367 -40 403 21 q 278 -150 331 -100 q 156 -244 226 -200 l 88 -161 q 173 -85 138 -124 q 235 -3 208 -46 q 278 92 261 40 q 308 206 296 143 q 352 321 324 272 q 439 406 381 369 l 476 421 l 442 436 q 379 508 401 465 q 360 610 357 551 q 358 725 363 674 q 339 821 354 776 q 297 904 324 865 q 228 983 269 943 l 317 1065 q 413 974 375 1022 q 474 869 451 926 q 502 741 496 811 q 504 585 508 671 q 513 541 503 560 q 539 508 522 522 q 578 483 556 493 q 628 469 601 474 l 617 378 q 520 340 563 368 q 468 263 478 311 z "},"&":{"ha":1057,"x_min":185,"x_max":1013,"o":"m 553 119 q 636 110 603 128 q 697 61 669 92 q 587 4 643 24 q 463 -15 531 -15 q 338 8 392 -15 q 250 73 285 32 q 200 169 215 114 q 193 290 185 225 q 217 378 199 338 q 261 455 235 419 q 321 521 288 490 q 392 576 354 551 q 346 683 356 639 q 342 771 336 728 q 376 876 349 829 q 447 956 404 924 q 546 1006 489 989 q 668 1024 603 1024 q 769 1012 714 1024 q 871 976 825 1000 l 819 864 q 733 888 779 879 q 650 896 688 896 q 547 864 589 896 q 497 783 504 832 q 500 729 494 754 q 518 678 506 704 q 550 624 531 651 q 594 561 569 596 l 778 304 q 833 413 808 363 q 875 526 858 463 l 1013 526 q 946 355 982 435 q 858 204 910 275 l 1008 0 l 810 0 l 482 444 l 458 482 q 397 404 424 442 q 363 308 369 367 q 385 167 351 222 q 499 113 419 113 q 526 115 514 113 q 553 119 538 117 z "},"~":{"ha":853,"x_min":126,"x_max":854,"o":"m 269 317 l 126 328 q 158 420 135 381 q 213 487 181 460 q 286 528 246 514 q 368 543 326 543 q 450 526 415 543 q 514 490 485 510 q 570 453 543 469 q 631 436 597 436 q 682 463 661 436 q 714 535 703 490 l 854 524 q 819 423 843 464 q 764 356 796 382 q 695 319 732 331 q 624 308 658 308 q 535 324 571 308 q 472 360 500 340 q 418 397 443 381 q 361 414 393 414 q 307 391 333 414 q 269 317 281 368 z "},"f":{"ha":582,"x_min":94,"x_max":732,"o":"m 565 718 l 635 718 l 619 596 l 419 596 q 442 640 429 618 q 474 678 456 661 q 515 707 492 696 q 565 718 538 718 m 211 596 l 94 596 l 107 690 l 226 718 l 231 757 q 266 881 239 825 q 335 977 293 938 q 434 1038 378 1017 q 558 1060 490 1060 q 638 1051 593 1060 q 732 1021 682 1043 l 681 911 q 613 930 640 925 q 561 935 585 935 q 449 890 496 935 q 392 763 403 846 l 299 0 l 139 0 l 211 596 z "},"d":{"ha":849,"x_min":89,"x_max":863,"o":"m 99 364 q 142 508 108 440 q 226 624 176 575 q 335 701 275 672 q 456 729 394 729 q 522 724 489 729 q 603 704 556 719 q 548 635 579 661 q 476 607 517 608 q 344 541 396 604 q 279 364 293 478 q 277 265 272 311 q 299 183 282 218 q 343 129 315 149 q 410 110 371 110 q 592 210 493 110 l 696 1053 l 863 1043 l 767 260 q 754 129 758 189 q 757 7 750 69 l 628 0 q 603 28 613 11 q 588 69 594 46 l 586 97 l 564 69 q 457 2 507 21 q 365 -17 407 -17 q 236 13 290 -17 q 148 92 182 42 q 101 213 114 143 q 99 364 89 282 z "},"@":{"ha":1276,"x_min":136,"x_max":1210,"o":"m 896 221 q 892 205 893 213 q 889 190 892 197 q 901 198 896 193 q 911 207 906 203 q 1026 317 988 253 q 1074 447 1065 381 q 1064 592 1083 528 q 1000 700 1044 656 q 888 768 956 744 q 736 792 821 792 q 569 763 647 792 q 430 678 490 733 q 329 542 369 624 q 276 357 289 461 q 284 173 264 253 q 349 38 304 93 q 462 -47 394 -18 q 611 -75 529 -75 q 669 -74 642 -75 q 728 -68 697 -72 q 794 -56 758 -64 q 874 -33 829 -47 l 896 -129 q 804 -154 844 -144 q 730 -169 764 -164 q 665 -176 696 -175 q 599 -178 633 -178 q 403 -147 492 -178 q 252 -50 314 -115 q 163 116 190 15 q 153 357 136 217 q 225 587 169 486 q 363 756 281 688 q 545 859 444 824 q 751 894 646 894 q 942 865 854 894 q 1090 778 1029 835 q 1181 638 1151 721 q 1197 447 1210 554 q 1155 315 1189 376 q 1068 204 1121 253 q 947 123 1015 156 q 803 76 879 90 q 782 99 788 85 q 772 132 776 114 l 772 158 l 756 131 q 671 78 710 90 q 594 65 632 65 q 463 107 507 65 q 426 219 418 149 q 452 292 432 261 q 510 347 472 324 q 606 384 549 369 q 746 407 664 399 q 737 382 743 397 q 720 351 731 367 q 694 322 710 335 q 657 307 678 310 q 574 276 596 299 q 547 225 551 253 q 565 176 544 194 q 628 157 586 157 q 702 174 664 157 q 778 235 740 192 l 801 424 q 686 550 815 550 q 626 545 657 550 q 550 525 594 540 l 526 610 q 629 640 585 632 q 718 647 674 647 q 881 588 828 647 q 918 417 933 529 l 904 300 q 899 260 901 281 q 896 221 897 240 z "},"k":{"ha":844,"x_min":107,"x_max":849,"o":"m 849 708 l 599 468 l 817 0 l 628 0 l 501 315 l 486 364 l 374 251 q 385 373 367 313 q 443 483 403 433 q 472 517 457 501 q 501 550 486 533 l 664 718 l 849 708 m 403 1043 l 275 0 l 107 0 l 236 1053 l 403 1043 z "},"t":{"ha":617,"x_min":96,"x_max":639,"o":"m 624 596 l 554 596 q 506 607 526 596 q 473 635 486 618 q 451 674 460 653 q 439 718 443 696 l 639 718 l 624 596 m 175 271 l 215 596 l 96 596 l 107 688 l 231 718 l 251 893 l 419 946 l 336 265 q 352 151 328 194 q 426 108 376 108 q 475 113 449 108 q 539 129 501 118 l 561 18 q 470 -8 507 0 q 399 -17 433 -17 q 215 58 272 -17 q 175 271 158 132 z "},"v":{"ha":743,"x_min":101,"x_max":817,"o":"m 464 0 l 283 0 l 101 718 l 281 718 l 394 151 l 408 190 l 644 718 l 817 708 l 464 0 z "},"y":{"ha":796,"x_min":10,"x_max":829,"o":"m 146 -218 q 212 -199 183 -218 q 265 -145 240 -181 q 315 -60 290 -110 q 368 51 339 -11 l 660 718 l 829 708 l 494 15 q 415 -135 451 -68 q 339 -247 379 -201 q 249 -318 299 -293 q 131 -343 199 -343 q 10 -319 72 -343 l 64 -207 q 106 -216 86 -214 q 146 -218 126 -218 m 290 718 q 312 608 300 664 q 335 495 324 551 q 353 383 346 439 q 364 275 361 328 q 358 201 364 239 q 340 130 351 164 q 313 67 328 96 q 282 17 299 38 l 108 718 l 290 718 z "},"g":{"ha":810,"x_min":63,"x_max":803,"o":"m 106 342 q 151 497 115 425 q 242 622 186 569 q 373 703 299 674 q 535 733 447 733 q 593 731 564 733 q 654 724 622 729 q 722 711 686 719 q 803 690 758 703 l 718 0 q 672 -154 707 -89 q 585 -262 638 -219 q 465 -326 532 -306 q 321 -347 397 -347 q 201 -336 267 -347 q 63 -289 135 -325 l 119 -172 q 231 -212 182 -201 q 325 -224 281 -224 q 403 -210 365 -224 q 472 -172 442 -197 q 523 -107 503 -146 q 550 -15 543 -68 l 625 594 q 572 604 597 601 q 525 607 546 607 q 364 535 426 607 q 286 342 301 464 q 283 257 281 299 q 297 183 285 215 q 335 134 310 151 q 400 121 360 117 q 462 104 438 125 q 507 47 486 83 q 428 8 468 24 q 354 -11 389 -8 q 239 11 289 -17 q 156 89 189 39 q 110 205 124 139 q 106 342 97 271 z "},"s":{"ha":594,"x_min":49,"x_max":599,"o":"m 49 44 l 104 160 q 212 123 163 133 q 306 113 261 113 q 391 138 361 113 q 425 196 421 163 q 407 251 429 229 q 350 292 385 274 q 274 330 315 311 q 198 374 232 349 q 144 438 164 400 q 131 532 124 475 q 152 601 135 565 q 203 665 169 636 q 284 712 236 693 q 397 731 332 731 q 489 724 442 731 q 599 694 536 717 l 544 582 q 462 603 496 597 q 394 608 428 608 q 324 590 351 608 q 292 536 296 571 q 310 482 288 504 q 367 441 332 460 q 443 403 401 422 q 519 356 485 383 q 573 291 553 329 q 586 197 593 253 q 556 113 581 151 q 493 45 531 74 q 410 1 456 17 q 317 -14 364 -14 q 198 -4 263 -14 q 49 44 133 6 z "},"z":{"ha":644,"x_min":44,"x_max":681,"o":"m 158 600 l 172 718 l 681 718 l 672 647 l 299 167 q 289 153 293 160 q 279 140 285 147 l 254 117 l 286 121 l 613 121 l 599 0 l 44 0 l 53 71 l 450 581 l 474 604 l 444 600 l 158 600 z "},"C":{"ha":863,"x_min":126,"x_max":968,"o":"m 601 -17 q 388 22 481 -17 q 236 131 296 61 q 151 295 176 200 q 140 504 126 390 q 203 711 154 615 q 330 877 253 807 q 508 988 407 947 q 729 1028 610 1028 q 847 1017 788 1028 q 968 981 906 1006 l 910 867 q 806 893 850 886 q 714 900 763 900 q 568 870 635 900 q 451 787 501 840 q 367 661 400 733 q 325 504 335 589 q 330 352 315 424 q 382 226 344 281 q 478 141 419 172 q 617 110 538 110 q 715 122 665 110 q 822 160 765 133 l 854 47 q 724 -1 788 14 q 601 -17 660 -17 z "},"G":{"ha":964,"x_min":101,"x_max":1000,"o":"m 706 900 q 558 871 626 900 q 435 790 489 842 q 347 665 382 738 q 301 504 313 592 q 308 347 290 419 q 365 222 325 275 q 465 140 404 169 q 606 110 526 110 q 670 113 636 110 q 750 129 704 117 l 792 468 l 951 468 l 900 51 q 735 -1 819 15 q 590 -17 650 -17 q 375 22 469 -17 q 218 130 281 61 q 128 294 156 199 q 115 504 101 390 q 181 713 129 617 q 313 878 232 808 q 497 988 393 949 q 721 1028 601 1028 q 854 1014 781 1028 q 1000 967 928 1000 l 942 850 q 810 890 867 881 q 706 900 754 900 z "},"H":{"ha":1043,"x_min":118,"x_max":1050,"o":"m 118 0 l 242 1010 l 415 1010 l 292 0 l 118 0 m 549 593 l 828 593 l 879 1010 l 1050 1010 l 926 0 l 756 0 l 813 467 l 401 467 q 425 511 411 489 q 457 551 439 533 q 498 581 475 569 q 549 593 521 593 z "},"N":{"ha":1065,"x_min":136,"x_max":1047,"o":"m 771 0 q 581 372 675 188 q 393 744 488 557 l 378 793 l 374 746 l 283 0 l 136 0 l 260 1010 l 429 1010 l 769 333 l 790 292 l 803 239 l 806 292 l 894 1010 l 1047 1010 l 924 0 l 771 0 z "},"O":{"ha":1097,"x_min":108,"x_max":1113,"o":"m 307 506 q 309 353 297 425 q 353 226 321 281 q 439 139 386 171 q 563 107 492 107 q 685 135 626 107 q 792 216 744 164 q 873 342 840 268 q 917 506 906 415 q 915 667 928 593 q 867 792 901 740 q 781 874 833 844 q 660 903 728 903 q 530 872 590 903 q 424 789 469 842 q 347 663 378 736 q 307 506 317 590 m 122 506 q 185 720 136 624 q 309 885 235 817 q 478 992 383 954 q 676 1031 572 1031 q 891 985 804 1031 q 1028 866 978 940 q 1095 697 1078 792 q 1100 506 1113 603 q 1041 301 1088 397 q 922 134 994 206 q 753 22 849 63 q 547 -19 658 -19 q 350 19 436 -19 q 209 126 264 57 q 131 292 154 196 q 122 506 108 389 z "},"Q":{"ha":1089,"x_min":113,"x_max":1118,"o":"m 938 160 l 1018 64 l 913 -29 l 613 321 l 718 414 l 824 289 l 839 261 l 853 296 q 897 399 881 344 q 919 506 913 453 q 917 663 929 590 q 872 789 906 736 q 787 872 839 842 q 664 903 735 903 q 534 872 594 903 q 428 789 474 842 q 351 663 382 736 q 311 506 321 590 q 313 351 301 424 q 357 225 325 279 q 439 140 389 171 q 556 108 489 108 q 589 110 571 108 q 624 114 607 111 q 703 97 667 117 q 760 51 740 76 q 647 -2 701 15 q 540 -19 592 -19 q 350 19 433 -19 q 213 126 267 57 q 135 292 158 196 q 126 506 113 389 q 189 719 140 622 q 311 885 238 815 q 479 992 385 954 q 681 1031 574 1031 q 876 992 790 1031 q 1017 885 963 954 q 1095 720 1072 817 q 1104 506 1118 624 q 1050 324 1093 410 q 938 160 1007 239 z "},"S":{"ha":789,"x_min":81,"x_max":768,"o":"m 507 903 q 395 867 438 903 q 346 779 353 832 q 371 693 340 729 q 450 626 401 657 q 556 563 499 594 q 660 490 613 531 q 736 392 708 449 q 754 257 764 336 q 717 145 747 196 q 637 58 686 94 q 522 2 588 22 q 376 -18 456 -18 q 240 -2 317 -18 q 81 54 163 14 l 140 168 q 271 123 208 136 q 385 110 333 110 q 462 121 426 110 q 524 152 497 132 q 567 199 551 172 q 588 256 583 225 q 564 347 594 310 q 485 416 533 385 q 380 477 438 447 q 275 547 322 507 q 199 639 228 586 q 181 768 171 692 q 217 879 189 831 q 290 960 246 928 q 391 1010 335 993 q 510 1028 447 1028 q 631 1019 572 1028 q 768 983 690 1010 l 708 871 q 600 896 650 889 q 507 903 550 903 z "},"U":{"ha":993,"x_min":147,"x_max":1021,"o":"m 503 -19 q 342 8 411 -19 q 228 86 272 35 q 165 212 183 138 q 158 381 147 286 l 236 1010 l 407 1010 l 326 360 q 330 254 319 301 q 366 174 340 207 q 431 124 392 142 q 518 107 469 107 q 609 124 567 107 q 685 174 651 142 q 740 254 718 207 q 769 360 763 301 l 850 1010 l 1021 1010 l 943 381 q 895 216 932 290 q 801 90 858 142 q 667 9 743 38 q 503 -19 592 -19 z "},"X":{"ha":900,"x_min":43,"x_max":961,"o":"m 388 236 l 229 0 l 43 0 l 375 454 q 396 411 385 438 q 411 356 407 385 q 411 295 415 326 q 388 236 407 264 m 664 0 l 183 1010 l 378 1010 l 518 664 l 528 624 l 543 664 l 769 1010 l 961 1010 l 601 515 l 854 0 l 664 0 z "},"Y":{"ha":950,"x_min":160,"x_max":1011,"o":"m 643 744 l 824 1010 l 1011 1010 l 657 524 q 635 566 646 540 q 619 622 624 592 q 618 683 614 651 q 643 744 622 715 m 351 1010 l 608 469 l 551 0 l 383 0 l 436 440 l 160 1010 l 351 1010 z "},"Z":{"ha":843,"x_min":85,"x_max":942,"o":"m 243 885 l 258 1010 l 942 1010 l 933 939 l 325 143 l 300 122 l 333 126 l 847 126 l 832 0 l 85 0 l 93 71 l 700 865 l 725 889 l 692 885 l 243 885 z "},"c":{"ha":596,"x_min":78,"x_max":658,"o":"m 401 -17 q 268 6 331 -17 q 162 76 206 29 q 98 193 118 122 q 89 360 78 264 q 138 523 100 453 q 232 640 176 593 q 355 711 288 688 q 493 735 422 735 q 574 727 531 735 q 658 704 618 719 l 604 590 q 536 604 568 600 q 478 608 504 608 q 343 544 401 608 q 269 360 285 481 q 270 252 263 299 q 297 174 278 206 q 347 126 317 143 q 417 110 378 110 q 481 118 446 110 q 565 146 517 126 l 594 32 q 487 -6 536 6 q 401 -17 438 -17 z "},"ç":{"ha":593,"x_min":69,"x_max":650,"o":"m 393 -17 l 392 -17 l 374 -64 q 413 -76 394 -68 q 447 -99 432 -85 q 468 -131 461 -112 q 472 -171 475 -149 q 451 -225 468 -203 q 407 -262 433 -247 q 350 -285 381 -278 q 289 -292 319 -292 q 239 -286 265 -292 q 181 -265 213 -281 l 211 -194 q 257 -209 236 -206 q 299 -212 278 -212 q 342 -203 322 -212 q 365 -175 363 -194 q 343 -140 368 -151 q 269 -122 318 -128 l 313 -8 q 208 29 256 1 q 129 103 161 57 q 83 213 97 149 q 79 360 69 276 q 128 523 90 453 q 222 640 167 593 q 345 711 278 688 q 483 735 413 735 q 565 727 521 735 q 650 704 610 719 l 593 589 q 527 604 560 600 q 468 608 494 608 q 333 544 392 608 q 260 360 275 481 q 260 252 253 299 q 288 174 268 206 q 338 126 307 143 q 407 110 368 110 q 473 118 438 110 q 557 146 508 126 l 585 32 q 478 -4 526 7 q 393 -17 429 -15 z "},"é":{"ha":756,"x_min":93,"x_max":750,"o":"m 740 1028 l 610 889 q 564 853 589 867 q 514 835 539 840 q 465 831 489 831 q 425 836 442 832 l 569 1028 l 740 1028 m 443 440 l 586 440 q 591 506 594 475 q 573 561 588 538 q 534 599 558 585 q 476 613 510 613 q 408 598 442 613 q 347 553 375 583 q 299 478 319 524 q 271 372 279 433 q 273 263 264 311 q 305 181 282 215 q 363 128 328 146 q 443 110 399 110 q 538 122 492 110 q 650 161 585 133 l 679 46 q 536 -3 603 11 q 410 -17 469 -17 q 260 15 322 -17 q 159 101 197 47 q 107 224 121 154 q 103 368 93 293 q 148 521 113 453 q 236 637 183 589 q 357 710 289 685 q 501 735 425 735 q 633 703 576 735 q 720 618 690 672 q 750 491 750 564 q 713 335 750 418 l 318 335 q 369 410 338 379 q 443 440 401 440 z "},"è":{"ha":756,"x_min":93,"x_max":751,"o":"m 399 892 l 322 1028 l 488 1028 l 565 836 q 524 832 547 832 q 478 838 501 832 q 435 857 456 844 q 399 892 414 869 m 443 440 l 588 440 q 592 506 596 475 q 574 561 589 538 q 535 599 560 585 q 478 613 510 613 q 410 598 443 613 q 348 553 376 583 q 299 478 319 524 q 271 372 279 433 q 273 263 264 311 q 305 181 282 215 q 363 128 328 146 q 444 110 399 110 q 540 122 493 110 q 650 161 586 133 l 681 46 q 538 -3 604 11 q 411 -17 471 -17 q 260 15 324 -17 q 159 101 197 47 q 107 224 121 154 q 103 368 93 293 q 148 521 113 453 q 237 637 183 589 q 358 710 290 685 q 503 735 426 735 q 634 703 578 735 q 721 618 690 672 q 751 491 751 564 q 713 335 751 418 l 319 335 q 371 410 339 379 q 443 440 403 440 z "},"ê":{"ha":756,"x_min":92,"x_max":749,"o":"m 472 1032 l 590 1032 l 717 835 l 618 815 l 517 922 l 392 815 l 299 835 l 472 1032 m 442 440 l 585 440 q 590 506 594 475 q 572 561 586 538 q 533 599 557 585 q 476 613 508 613 q 408 598 442 613 q 347 553 375 583 q 298 478 318 524 q 269 372 278 433 q 272 263 263 311 q 303 181 281 215 q 362 128 326 146 q 443 110 397 110 q 538 122 492 110 q 649 161 585 133 l 678 46 q 535 -3 601 11 q 410 -17 468 -17 q 258 15 321 -17 q 158 101 196 47 q 106 224 119 154 q 101 368 92 293 q 147 521 111 453 q 235 637 182 589 q 356 710 288 685 q 501 735 424 735 q 633 703 576 735 q 719 618 689 672 q 749 491 749 564 q 711 335 749 418 l 317 335 q 369 410 336 379 q 442 440 401 440 z "},"ë":{"ha":756,"x_min":93,"x_max":751,"o":"m 563 931 q 594 989 567 965 q 654 1013 621 1013 q 710 989 689 1013 q 728 931 732 965 q 697 872 724 896 q 635 849 669 849 q 580 872 601 849 q 563 931 558 896 m 293 931 q 324 989 297 965 q 383 1013 351 1013 q 440 989 418 1013 q 457 931 461 965 q 426 872 453 896 q 364 849 399 849 q 310 872 332 849 q 293 931 289 896 m 443 440 l 588 440 q 592 506 596 475 q 574 561 589 538 q 535 599 560 585 q 478 613 510 613 q 410 598 443 613 q 348 553 376 583 q 299 478 319 524 q 271 372 279 433 q 273 263 264 311 q 305 181 282 215 q 363 128 328 146 q 444 110 399 110 q 540 122 493 110 q 650 161 586 133 l 681 46 q 538 -3 604 11 q 411 -17 471 -17 q 260 15 324 -17 q 159 101 197 47 q 107 224 121 154 q 103 368 93 293 q 148 521 113 453 q 237 637 183 589 q 358 710 290 685 q 503 735 426 735 q 634 703 578 735 q 721 618 690 672 q 751 491 751 564 q 713 335 751 418 l 319 335 q 371 410 339 379 q 443 440 403 440 z "},"í":{"ha":379,"x_min":78,"x_max":503,"o":"m 503 1028 l 371 889 q 325 853 350 867 q 275 835 300 840 q 226 831 250 831 q 186 836 203 832 l 332 1028 l 503 1028 m 250 0 l 78 0 l 165 718 l 338 718 l 250 0 z "},"ì":{"ha":383,"x_min":133,"x_max":393,"o":"m 210 892 l 133 1028 l 299 1028 l 376 836 q 335 832 358 832 q 290 838 313 832 q 246 857 267 844 q 210 892 225 869 m 306 0 l 135 0 l 222 718 l 393 718 l 306 0 z "},"î":{"ha":468,"x_min":126,"x_max":544,"o":"m 300 1032 l 418 1032 l 544 835 l 446 815 l 344 922 l 219 815 l 126 835 l 300 1032 m 318 0 l 146 0 l 233 718 l 406 718 l 318 0 z "},"ï":{"ha":489,"x_min":136,"x_max":579,"o":"m 410 931 q 441 989 414 965 q 501 1013 468 1013 q 558 989 536 1013 q 575 931 579 965 q 544 872 571 896 q 482 849 517 849 q 427 872 449 849 q 410 931 406 896 m 140 931 q 172 989 144 965 q 232 1013 199 1013 q 288 989 265 1013 q 306 931 310 965 q 274 872 301 896 q 213 849 246 849 q 158 872 179 849 q 140 931 136 896 m 331 0 l 160 0 l 247 718 l 418 718 l 331 0 z "},"ñ":{"ha":828,"x_min":99,"x_max":790,"o":"m 392 858 l 300 867 q 320 934 306 904 q 356 984 335 964 q 401 1015 376 1004 q 451 1025 426 1025 q 503 1013 482 1025 q 540 988 524 1001 q 572 962 557 974 q 606 950 588 950 q 638 969 624 950 q 658 1019 651 988 l 747 1011 q 724 938 740 968 q 688 888 708 907 q 646 861 668 869 q 603 853 624 853 q 548 865 569 853 q 510 890 526 876 q 481 916 494 904 q 450 928 468 928 q 417 913 435 928 q 392 858 400 897 m 550 0 l 613 514 q 604 580 618 554 q 551 606 590 606 q 508 599 529 606 q 463 596 486 593 q 418 618 435 596 q 386 667 401 640 q 515 721 463 707 q 611 735 567 735 q 683 722 649 735 q 742 683 718 710 q 778 613 767 656 q 783 511 790 571 l 721 0 l 550 0 m 164 711 l 303 718 q 338 644 332 681 q 339 565 344 607 l 271 0 l 99 0 l 164 536 q 169 619 168 575 q 164 711 169 663 z "},"ó":{"ha":786,"x_min":64,"x_max":803,"o":"m 729 1028 l 597 889 q 551 853 576 867 q 501 835 526 840 q 453 831 476 831 q 413 836 429 832 l 558 1028 l 729 1028 m 611 360 q 585 540 625 472 q 464 608 544 608 q 327 540 383 608 q 256 360 271 472 q 281 178 242 246 q 403 110 321 110 q 540 178 483 110 q 611 360 597 246 m 792 360 q 744 206 781 275 q 652 87 707 136 q 529 10 597 38 q 388 -17 461 -17 q 250 9 313 -17 q 145 83 188 35 q 83 201 103 132 q 75 360 64 271 q 122 513 85 443 q 213 631 158 582 q 337 708 268 681 q 479 735 406 735 q 616 709 554 735 q 721 635 678 683 q 783 517 764 586 q 792 360 803 447 z "},"ò":{"ha":786,"x_min":64,"x_max":803,"o":"m 399 892 l 322 1028 l 489 1028 l 567 836 q 526 832 549 832 q 480 838 503 832 q 435 857 457 844 q 399 892 414 869 m 611 360 q 585 540 625 472 q 464 608 544 608 q 327 540 383 608 q 256 360 271 472 q 281 178 242 246 q 403 110 321 110 q 540 178 483 110 q 611 360 597 246 m 792 360 q 744 206 781 275 q 652 87 707 136 q 529 10 597 38 q 388 -17 461 -17 q 250 9 313 -17 q 145 83 188 35 q 83 201 103 132 q 75 360 64 271 q 122 513 85 443 q 213 631 158 582 q 337 708 268 681 q 479 735 406 735 q 616 709 554 735 q 721 635 678 683 q 783 517 764 586 q 792 360 803 447 z "},"ô":{"ha":786,"x_min":64,"x_max":803,"o":"m 457 1032 l 576 1032 l 701 835 l 603 815 l 501 922 l 378 815 l 285 835 l 457 1032 m 611 360 q 585 540 625 472 q 464 608 544 608 q 327 540 383 608 q 256 360 271 472 q 281 178 242 246 q 403 110 321 110 q 540 178 483 110 q 611 360 597 246 m 792 360 q 744 206 781 275 q 652 87 707 136 q 529 10 597 38 q 388 -17 461 -17 q 250 9 313 -17 q 145 83 188 35 q 83 201 103 132 q 75 360 64 271 q 122 513 85 443 q 213 631 158 582 q 337 708 268 681 q 479 735 406 735 q 616 709 554 735 q 721 635 678 683 q 783 517 764 586 q 792 360 803 447 z "},"ö":{"ha":786,"x_min":64,"x_max":801,"o":"m 557 931 q 588 989 561 965 q 649 1013 615 1013 q 703 989 682 1013 q 721 931 725 965 q 690 872 717 896 q 629 849 663 849 q 574 872 596 849 q 557 931 553 896 m 286 931 q 317 989 290 965 q 378 1013 344 1013 q 434 989 413 1013 q 451 931 456 965 q 420 872 447 896 q 358 849 393 849 q 303 872 325 849 q 286 931 282 896 m 610 360 q 610 462 617 415 q 584 540 603 508 q 534 590 565 572 q 463 608 503 608 q 326 540 382 608 q 254 360 269 472 q 281 178 240 246 q 401 110 321 110 q 540 178 483 110 q 610 360 596 246 m 790 360 q 743 206 779 275 q 652 87 707 136 q 528 10 597 38 q 386 -17 460 -17 q 249 9 311 -17 q 145 83 188 35 q 83 201 103 132 q 75 360 64 271 q 122 513 85 443 q 213 631 158 582 q 335 708 267 681 q 478 735 404 735 q 615 709 553 735 q 720 635 678 683 q 782 517 763 586 q 790 360 801 447 z "},"õ":{"ha":786,"x_min":64,"x_max":803,"o":"m 374 858 l 282 867 q 303 934 288 904 q 339 984 318 964 q 384 1015 360 1004 q 433 1025 408 1025 q 485 1013 464 1025 q 522 988 506 1001 q 554 962 539 974 q 588 950 569 950 q 620 969 607 950 q 640 1019 633 988 l 731 1011 q 708 938 724 968 q 671 888 692 907 q 628 861 650 869 q 585 853 606 853 q 530 865 551 853 q 492 890 508 876 q 463 916 476 904 q 432 928 450 928 q 399 913 417 928 q 374 858 382 897 m 611 360 q 585 540 625 472 q 464 608 544 608 q 327 540 383 608 q 256 360 271 472 q 281 178 242 246 q 403 110 321 110 q 540 178 483 110 q 611 360 597 246 m 792 360 q 744 206 781 275 q 652 87 707 136 q 529 10 597 38 q 388 -17 461 -17 q 250 9 313 -17 q 145 83 188 35 q 83 201 103 132 q 75 360 64 271 q 122 513 85 443 q 213 631 158 582 q 337 708 268 681 q 479 735 406 735 q 616 709 554 735 q 721 635 678 683 q 783 517 764 586 q 792 360 803 447 z "},"ú":{"ha":815,"x_min":99,"x_max":786,"o":"m 746 1028 l 615 889 q 569 853 594 867 q 519 835 544 840 q 471 831 494 831 q 431 836 447 832 l 575 1028 l 746 1028 m 338 718 l 275 204 q 283 138 269 164 q 335 113 296 113 q 371 118 351 113 q 414 124 390 124 q 464 102 444 125 q 500 51 483 79 q 371 -3 424 11 q 274 -17 318 -17 q 202 -4 236 -17 q 144 35 168 8 q 110 105 121 63 q 106 207 99 147 l 168 718 l 338 718 m 722 7 l 583 0 q 549 74 556 38 q 547 153 542 111 l 617 718 l 786 718 l 721 182 q 722 7 710 103 z "},"ù":{"ha":815,"x_min":97,"x_max":785,"o":"m 390 892 l 314 1028 l 481 1028 l 558 836 q 517 832 540 832 q 472 838 494 832 q 427 857 449 844 q 390 892 406 869 m 336 718 l 274 204 q 281 138 268 164 q 332 113 293 113 q 369 118 350 113 q 413 124 389 124 q 463 102 443 125 q 499 51 482 79 q 369 -3 422 11 q 272 -17 317 -17 q 201 -4 235 -17 q 143 35 167 8 q 108 105 119 63 q 104 207 97 147 l 167 718 l 336 718 m 721 7 l 582 0 q 547 74 553 38 q 546 153 540 111 l 615 718 l 785 718 l 719 182 q 721 7 708 103 z "},"û":{"ha":815,"x_min":99,"x_max":786,"o":"m 457 1032 l 576 1032 l 701 835 l 603 815 l 501 922 l 378 815 l 285 835 l 457 1032 m 338 718 l 275 204 q 283 138 269 164 q 335 113 296 113 q 371 118 351 113 q 414 124 390 124 q 464 102 444 125 q 500 51 483 79 q 371 -3 424 11 q 274 -17 318 -17 q 202 -4 236 -17 q 144 35 168 8 q 110 105 121 63 q 106 207 99 147 l 168 718 l 338 718 m 722 7 l 583 0 q 549 74 556 38 q 547 153 542 111 l 617 718 l 786 718 l 721 182 q 722 7 710 103 z "},"ü":{"ha":815,"x_min":97,"x_max":786,"o":"m 563 931 q 594 989 567 965 q 654 1013 621 1013 q 709 989 688 1013 q 726 931 731 965 q 695 872 722 896 q 635 849 668 849 q 580 872 601 849 q 563 931 558 896 m 292 931 q 323 989 296 965 q 383 1013 350 1013 q 440 989 418 1013 q 457 931 461 965 q 426 872 453 896 q 364 849 399 849 q 309 872 331 849 q 292 931 288 896 m 336 718 l 274 204 q 281 138 268 164 q 333 113 294 113 q 369 118 350 113 q 413 124 389 124 q 463 102 443 125 q 499 51 482 79 q 370 -3 422 11 q 274 -17 318 -17 q 202 -4 236 -17 q 144 35 168 8 q 108 105 119 63 q 104 207 97 147 l 167 718 l 336 718 m 722 7 l 582 0 q 547 74 554 38 q 546 153 540 111 l 615 718 l 786 718 l 721 182 q 715 99 715 143 q 722 7 715 56 z "},"É":{"ha":801,"x_min":104,"x_max":822,"o":"m 771 1236 l 647 1114 q 601 1081 626 1093 q 551 1064 576 1069 q 502 1058 525 1058 q 463 1063 479 1058 l 606 1236 l 771 1236 m 535 592 l 724 592 l 708 468 l 388 468 q 411 511 397 489 q 443 551 425 533 q 484 581 461 569 q 535 592 507 592 m 104 0 l 228 1010 l 822 1010 l 807 883 l 386 883 l 293 126 l 736 126 l 721 0 l 104 0 z "},"Ñ":{"ha":1040,"x_min":128,"x_max":1039,"o":"m 535 1079 l 443 1088 q 464 1155 449 1125 q 500 1205 479 1185 q 545 1235 521 1225 q 594 1246 569 1246 q 646 1234 625 1246 q 683 1208 667 1222 q 715 1183 700 1194 q 749 1171 731 1171 q 781 1190 768 1171 q 800 1240 793 1208 l 890 1232 q 867 1158 883 1189 q 831 1109 851 1128 q 788 1082 810 1090 q 744 1074 765 1074 q 690 1085 711 1074 q 652 1111 668 1097 q 623 1137 636 1125 q 592 1149 610 1149 q 559 1133 576 1149 q 535 1079 542 1118 m 763 0 q 572 373 667 188 q 382 746 478 558 l 369 793 l 365 746 l 275 0 l 128 0 l 251 1010 l 419 1010 l 763 332 q 773 310 768 321 q 783 289 778 300 l 794 243 l 797 292 l 886 1010 l 1039 1010 l 915 0 l 763 0 z "},"Ö":{"ha":1099,"x_min":86,"x_max":1094,"o":"m 729 1167 q 760 1225 733 1201 q 821 1249 788 1249 q 876 1225 854 1249 q 893 1167 897 1201 q 861 1108 889 1132 q 800 1085 833 1085 q 746 1108 767 1085 q 729 1167 725 1132 m 458 1167 q 490 1225 463 1201 q 550 1249 517 1249 q 606 1225 585 1249 q 624 1167 628 1201 q 592 1108 619 1132 q 529 1085 564 1085 q 475 1108 496 1085 q 458 1167 454 1132 m 896 506 q 894 663 906 590 q 849 789 882 736 q 763 872 815 842 q 640 903 711 903 q 510 872 569 903 q 404 789 450 842 q 328 663 358 736 q 288 506 297 590 q 290 351 278 424 q 335 224 303 278 q 421 138 368 169 q 543 107 474 107 q 674 138 614 107 q 780 224 733 169 q 856 351 826 278 q 896 506 886 424 m 1081 506 q 1017 292 1067 389 q 894 126 968 196 q 726 19 819 57 q 528 -19 632 -19 q 332 18 418 -19 q 190 124 246 56 q 110 290 133 193 q 101 506 86 388 q 164 719 115 622 q 286 885 213 815 q 455 992 360 954 q 657 1031 550 1031 q 852 992 767 1031 q 993 885 938 954 q 1072 720 1049 817 q 1081 506 1094 624 z "},"Ü":{"ha":964,"x_min":124,"x_max":996,"o":"m 679 1167 q 710 1225 683 1201 q 771 1249 738 1249 q 826 1225 804 1249 q 843 1167 847 1201 q 811 1108 839 1132 q 750 1085 783 1085 q 696 1108 717 1085 q 679 1167 675 1132 m 408 1167 q 440 1225 413 1201 q 500 1249 467 1249 q 556 1225 535 1249 q 574 1167 578 1201 q 542 1108 569 1132 q 479 1085 514 1085 q 425 1108 446 1085 q 408 1167 404 1132 m 478 -19 q 317 8 386 -19 q 204 86 249 35 q 142 212 160 138 q 135 381 124 286 l 213 1010 l 383 1010 l 303 360 q 306 254 296 301 q 342 174 317 207 q 406 124 368 142 q 493 107 444 107 q 585 124 542 107 q 661 174 628 142 q 717 254 694 207 q 746 360 739 301 l 826 1010 l 996 1010 l 918 381 q 870 216 907 290 q 776 90 833 142 q 643 9 719 38 q 478 -19 567 -19 z "},"Ç":{"ha":906,"x_min":128,"x_max":968,"o":"m 601 -17 q 578 -16 589 -17 q 556 -15 567 -15 l 538 -64 q 577 -76 558 -68 q 610 -99 596 -85 q 632 -131 625 -112 q 636 -171 639 -149 q 615 -225 632 -203 q 571 -262 597 -247 q 514 -285 544 -278 q 453 -292 483 -292 q 403 -286 429 -292 q 344 -265 376 -281 l 375 -194 q 421 -209 400 -206 q 463 -212 442 -212 q 506 -203 486 -212 q 529 -175 526 -194 q 507 -140 532 -151 q 433 -122 482 -128 l 478 -4 q 318 58 386 14 q 206 169 250 103 q 145 321 163 236 q 140 504 128 406 q 203 711 154 615 q 330 877 253 807 q 508 988 407 947 q 729 1028 610 1028 q 847 1017 788 1028 q 968 981 906 1006 l 910 867 q 806 893 850 886 q 714 900 763 900 q 568 870 635 900 q 451 787 501 840 q 367 661 400 733 q 325 504 335 589 q 329 349 314 421 q 382 224 344 276 q 478 140 419 171 q 617 110 538 110 q 715 122 665 110 q 822 160 765 133 l 854 47 q 724 -1 788 14 q 601 -17 660 -17 z "},"Å":{"ha":954,"x_min":32,"x_max":928,"o":"m 606 1051 q 651 1069 633 1051 q 672 1113 669 1086 q 662 1156 675 1139 q 621 1174 649 1174 q 578 1156 596 1174 q 558 1110 561 1138 q 568 1069 556 1088 q 606 1051 581 1051 m 203 0 l 32 0 l 515 1006 q 468 1110 460 1040 q 521 1203 475 1167 q 631 1240 567 1240 q 731 1205 696 1240 q 760 1111 767 1169 q 736 1050 756 1076 q 689 1007 717 1024 l 928 0 l 746 0 q 665 377 706 190 q 583 754 624 564 l 572 814 l 546 753 q 460 567 503 660 q 375 381 418 474 l 357 353 l 374 356 l 513 356 q 560 344 540 356 q 594 314 581 332 q 615 273 607 296 q 628 229 624 250 l 308 229 l 203 0 z "},"Ä":{"ha":954,"x_min":31,"x_max":926,"o":"m 672 1167 q 703 1225 676 1201 q 764 1249 731 1249 q 820 1225 799 1249 q 838 1167 842 1201 q 806 1108 833 1132 q 743 1085 778 1085 q 689 1108 710 1085 q 672 1167 668 1132 m 403 1167 q 434 1225 407 1201 q 493 1249 461 1249 q 549 1225 528 1249 q 567 1167 571 1201 q 535 1108 563 1132 q 472 1085 507 1085 q 419 1108 440 1085 q 403 1167 399 1132 m 517 1010 l 688 1010 l 926 0 l 744 0 l 572 817 l 375 381 l 356 353 l 375 356 l 511 356 q 559 344 539 356 q 592 314 579 332 q 614 273 606 296 q 626 229 622 250 l 307 229 l 203 0 l 31 0 l 517 1010 z "},"À":{"ha":954,"x_min":31,"x_max":926,"o":"m 529 1114 l 453 1236 l 617 1236 l 697 1063 q 656 1058 679 1058 q 608 1063 632 1058 q 563 1081 583 1068 q 529 1114 542 1093 m 517 1010 l 688 1010 l 926 0 l 744 0 l 572 817 l 375 381 l 356 353 l 375 356 l 511 356 q 559 344 539 356 q 592 314 579 332 q 614 273 606 296 q 626 229 622 250 l 307 229 l 203 0 l 31 0 l 517 1010 z "},"Ã":{"ha":954,"x_min":31,"x_max":926,"o":"m 494 1079 l 401 1088 q 422 1155 407 1125 q 458 1205 438 1185 q 504 1235 479 1225 q 554 1246 529 1246 q 606 1234 585 1246 q 643 1208 626 1222 q 674 1183 660 1194 q 708 1171 689 1171 q 740 1190 726 1171 q 760 1240 753 1208 l 849 1232 q 826 1158 842 1189 q 790 1109 810 1128 q 747 1082 769 1090 q 704 1074 724 1074 q 648 1085 669 1074 q 611 1111 626 1097 q 583 1137 596 1125 q 551 1149 569 1149 q 519 1133 536 1149 q 494 1079 501 1118 m 517 1010 l 688 1010 l 926 0 l 744 0 l 572 817 l 375 381 l 356 353 l 375 356 l 511 356 q 559 344 539 356 q 592 314 579 332 q 614 273 606 296 q 626 229 622 250 l 307 229 l 203 0 l 31 0 l 517 1010 z "},"Õ":{"ha":1099,"x_min":86,"x_max":1094,"o":"m 547 1079 l 456 1088 q 476 1155 461 1125 q 513 1205 492 1185 q 558 1235 533 1225 q 607 1246 582 1246 q 658 1234 638 1246 q 696 1208 679 1222 q 728 1183 713 1194 q 761 1171 743 1171 q 793 1190 781 1171 q 813 1240 806 1208 l 903 1232 q 880 1158 896 1189 q 843 1109 864 1128 q 800 1082 822 1090 q 757 1074 778 1074 q 702 1085 724 1074 q 665 1111 681 1097 q 635 1137 649 1125 q 604 1149 622 1149 q 572 1133 589 1149 q 547 1079 554 1118 m 896 506 q 894 663 906 590 q 849 789 882 736 q 763 872 815 842 q 640 903 711 903 q 510 872 569 903 q 404 789 450 842 q 328 663 358 736 q 288 506 297 590 q 290 351 278 424 q 335 224 303 278 q 421 138 368 169 q 543 107 474 107 q 674 138 614 107 q 780 224 733 169 q 856 351 826 278 q 896 506 886 424 m 1081 506 q 1017 292 1067 389 q 894 126 968 196 q 726 19 819 57 q 528 -19 632 -19 q 332 18 418 -19 q 190 124 246 56 q 110 290 133 193 q 101 506 86 388 q 164 719 115 622 q 286 885 213 815 q 455 992 360 954 q 657 1031 550 1031 q 852 992 767 1031 q 993 885 938 954 q 1072 720 1049 817 q 1081 506 1094 624 z "},"Œ":{"ha":1332,"x_min":86,"x_max":1393,"o":"m 1106 592 l 1294 592 l 1279 468 l 958 468 q 982 511 968 489 q 1014 551 996 533 q 1055 581 1032 569 q 1106 592 1078 592 m 640 903 q 510 872 569 903 q 404 789 450 842 q 328 663 358 736 q 288 506 297 590 q 290 351 278 424 q 335 224 303 278 q 421 138 368 169 q 543 107 474 107 q 617 113 579 107 q 690 131 654 118 l 782 879 q 713 897 750 890 q 640 903 676 903 m 528 -19 q 332 18 418 -19 q 190 124 246 56 q 110 290 133 193 q 101 506 86 388 q 164 719 115 622 q 286 885 213 815 q 455 992 360 954 q 657 1031 550 1031 q 758 1020 707 1031 q 869 1010 810 1010 l 1393 1010 l 1378 883 l 957 883 l 864 126 l 1307 126 l 1292 0 l 746 0 q 626 -10 681 0 q 528 -19 572 -19 z "},"œ":{"ha":1267,"x_min":65,"x_max":1267,"o":"m 613 360 q 586 542 626 475 q 465 608 546 608 q 328 540 385 608 q 257 360 272 472 q 283 178 243 246 q 404 110 324 110 q 541 176 485 110 q 613 360 597 243 m 788 371 q 790 262 781 310 q 822 180 799 214 q 880 128 844 146 q 960 110 915 110 q 1055 122 1008 110 q 1167 161 1101 133 l 1196 46 q 1053 -3 1119 11 q 926 -17 986 -17 q 840 -3 881 -17 q 766 33 799 10 q 710 88 733 56 q 675 157 688 119 q 549 32 625 81 q 389 -17 472 -17 q 251 9 314 -17 q 147 83 189 35 q 85 201 104 132 q 76 360 65 271 q 123 513 86 443 q 215 631 160 582 q 338 708 269 681 q 481 735 407 735 q 557 725 519 735 q 627 694 594 715 q 685 642 660 674 q 722 568 710 611 q 851 692 771 649 q 1018 735 931 735 q 1150 703 1093 735 q 1237 618 1207 672 q 1267 491 1267 564 q 1229 335 1267 418 l 835 335 q 886 410 854 379 q 960 440 918 440 l 1103 440 q 1108 506 1111 475 q 1090 561 1104 538 q 1051 599 1075 585 q 993 613 1026 613 q 926 598 960 613 q 865 554 893 583 q 816 479 836 525 q 788 371 796 433 z "},"æ":{"ha":1181,"x_min":58,"x_max":1172,"o":"m 864 440 l 1008 440 q 1013 506 1017 475 q 995 561 1010 538 q 956 599 981 585 q 899 613 931 613 q 831 598 864 613 q 769 553 797 583 q 720 478 740 524 q 692 372 700 433 q 694 263 685 311 q 726 181 703 215 q 784 128 749 146 q 865 110 819 110 q 960 122 914 110 q 1071 161 1007 133 l 1101 46 q 958 -3 1025 11 q 832 -17 892 -17 q 744 -1 785 -17 q 671 42 703 15 q 617 103 639 68 q 588 174 596 138 q 528 90 563 125 q 453 31 493 54 q 370 -5 413 7 q 289 -17 328 -17 q 118 40 178 -17 q 69 189 58 96 q 99 276 75 236 q 172 346 124 315 q 295 398 219 376 q 481 429 371 419 q 456 368 474 399 q 403 322 438 338 q 335 290 364 300 q 286 272 306 281 q 255 248 267 263 q 239 203 243 233 q 258 137 235 164 q 325 110 282 110 q 456 179 404 110 q 524 367 508 249 l 532 438 q 508 560 542 514 q 392 606 474 606 q 317 599 356 606 q 226 574 278 592 l 199 682 q 327 722 265 711 q 436 733 389 733 q 565 694 508 733 q 650 583 622 654 q 704 645 672 617 q 772 693 736 674 q 847 724 808 713 q 924 735 886 735 q 1055 703 999 735 q 1142 618 1111 672 q 1172 491 1172 564 q 1133 335 1172 418 l 740 335 q 792 410 760 379 q 864 440 824 440 z "},"Â":{"ha":954,"x_min":31,"x_max":926,"o":"m 565 1236 l 683 1236 l 814 1072 l 715 1053 l 611 1132 l 489 1053 l 396 1072 l 565 1236 m 517 1010 l 688 1010 l 926 0 l 744 0 l 572 817 l 375 381 l 356 353 l 375 356 l 511 356 q 559 344 539 356 q 592 314 579 332 q 614 273 606 296 q 626 229 622 250 l 307 229 l 203 0 l 31 0 l 517 1010 z "},"Ê":{"ha":801,"x_min":104,"x_max":822,"o":"m 513 1236 l 631 1236 l 761 1072 l 663 1053 l 558 1132 l 436 1053 l 343 1072 l 513 1236 m 535 592 l 724 592 l 708 468 l 388 468 q 411 511 397 489 q 443 551 425 533 q 484 581 461 569 q 535 592 507 592 m 104 0 l 228 1010 l 822 1010 l 807 883 l 386 883 l 293 126 l 736 126 l 721 0 l 104 0 z "},"Á":{"ha":954,"x_min":29,"x_max":925,"o":"m 833 1236 l 710 1114 q 664 1081 689 1093 q 613 1064 639 1069 q 565 1058 588 1058 q 525 1063 542 1058 l 668 1236 l 833 1236 m 515 1010 l 685 1010 l 925 0 l 743 0 l 571 817 l 372 381 l 354 353 l 374 356 l 510 356 q 558 344 538 356 q 591 314 578 332 q 613 273 604 296 q 625 229 621 250 l 306 229 l 200 0 l 29 0 l 515 1010 z "},"Ë":{"ha":801,"x_min":104,"x_max":822,"o":"m 613 1167 q 644 1225 617 1201 q 704 1249 671 1249 q 760 1225 739 1249 q 778 1167 782 1201 q 746 1108 774 1132 q 683 1085 718 1085 q 629 1108 650 1085 q 613 1167 608 1132 m 343 1167 q 374 1225 347 1201 q 433 1249 401 1249 q 490 1225 468 1249 q 507 1167 511 1201 q 475 1108 503 1132 q 413 1085 447 1085 q 360 1108 381 1085 q 343 1167 339 1132 m 535 592 l 724 592 l 708 468 l 388 468 q 411 511 397 489 q 443 551 425 533 q 484 581 461 569 q 535 592 507 592 m 104 0 l 228 1010 l 822 1010 l 807 883 l 386 883 l 293 126 l 736 126 l 721 0 l 104 0 z "},"È":{"ha":801,"x_min":104,"x_max":822,"o":"m 471 1114 l 396 1236 l 560 1236 l 640 1063 q 598 1058 622 1058 q 550 1063 574 1058 q 505 1081 526 1068 q 471 1114 483 1093 m 535 592 l 724 592 l 708 468 l 388 468 q 411 511 397 489 q 443 551 425 533 q 484 581 461 569 q 535 592 507 592 m 104 0 l 228 1010 l 822 1010 l 807 883 l 386 883 l 293 126 l 736 126 l 721 0 l 104 0 z "},"Í":{"ha":446,"x_min":103,"x_max":542,"o":"m 542 1236 l 418 1114 q 372 1081 397 1093 q 321 1064 346 1069 q 272 1058 296 1058 q 232 1063 249 1058 l 375 1236 l 542 1236 m 394 1010 l 271 0 l 103 0 l 226 1010 l 394 1010 z "},"Î":{"ha":446,"x_min":138,"x_max":563,"o":"m 314 1236 l 432 1236 l 563 1072 l 464 1053 l 360 1132 l 238 1053 l 144 1072 l 314 1236 m 429 1010 l 306 0 l 138 0 l 261 1010 l 429 1010 z "},"Ï":{"ha":486,"x_min":156,"x_max":604,"o":"m 436 1167 q 467 1225 440 1201 q 528 1249 494 1249 q 583 1225 561 1249 q 600 1167 604 1201 q 568 1108 596 1132 q 507 1085 540 1085 q 453 1108 474 1085 q 436 1167 432 1132 m 165 1167 q 197 1225 169 1201 q 257 1249 224 1249 q 313 1225 292 1249 q 331 1167 335 1201 q 299 1108 326 1132 q 236 1085 271 1085 q 182 1108 203 1085 q 165 1167 161 1132 m 449 1010 l 325 0 l 156 0 l 279 1010 l 449 1010 z "},"Ì":{"ha":388,"x_min":114,"x_max":415,"o":"m 246 1114 l 171 1236 l 335 1236 l 415 1063 q 373 1058 397 1058 q 325 1063 349 1058 q 280 1081 301 1068 q 246 1114 258 1093 m 407 1010 l 283 0 l 114 0 l 238 1010 l 407 1010 z "},"Ó":{"ha":1099,"x_min":86,"x_max":1093,"o":"m 904 1236 l 781 1114 q 735 1081 760 1093 q 684 1064 710 1069 q 635 1058 658 1058 q 596 1063 613 1058 l 739 1236 l 904 1236 m 896 506 q 894 663 906 590 q 849 789 882 736 q 763 872 815 842 q 639 903 710 903 q 509 872 569 903 q 403 789 449 842 q 326 663 357 736 q 286 506 296 590 q 289 351 276 424 q 334 224 301 278 q 419 138 367 169 q 542 107 472 107 q 673 138 613 107 q 779 224 733 169 q 856 351 825 278 q 896 506 886 424 m 1079 506 q 1016 292 1065 389 q 892 126 967 196 q 724 19 818 57 q 526 -19 631 -19 q 331 18 417 -19 q 190 124 246 56 q 110 290 133 193 q 101 506 86 388 q 164 719 115 622 q 286 885 213 815 q 454 992 360 954 q 656 1031 549 1031 q 851 992 765 1031 q 992 885 938 954 q 1070 720 1047 817 q 1079 506 1093 624 z "},"Ô":{"ha":1099,"x_min":86,"x_max":1093,"o":"m 625 1236 l 743 1236 l 874 1072 l 775 1053 l 671 1132 l 549 1053 l 456 1072 l 625 1236 m 896 506 q 894 663 906 590 q 849 789 882 736 q 763 872 815 842 q 639 903 710 903 q 509 872 569 903 q 403 789 449 842 q 326 663 357 736 q 286 506 296 590 q 289 351 276 424 q 334 224 301 278 q 419 138 367 169 q 542 107 472 107 q 673 138 613 107 q 779 224 733 169 q 856 351 825 278 q 896 506 886 424 m 1079 506 q 1016 292 1065 389 q 892 126 967 196 q 724 19 818 57 q 526 -19 631 -19 q 331 18 417 -19 q 190 124 246 56 q 110 290 133 193 q 101 506 86 388 q 164 719 115 622 q 286 885 213 815 q 454 992 360 954 q 656 1031 549 1031 q 851 992 765 1031 q 992 885 938 954 q 1070 720 1047 817 q 1079 506 1093 624 z "},"Ò":{"ha":1099,"x_min":88,"x_max":1096,"o":"m 539 1114 l 464 1236 l 628 1236 l 708 1063 q 666 1058 690 1058 q 618 1063 642 1058 q 573 1081 594 1068 q 539 1114 551 1093 m 897 506 q 895 663 907 590 q 850 789 883 736 q 764 872 817 842 q 642 903 711 903 q 511 872 571 903 q 405 789 451 842 q 328 663 358 736 q 288 506 297 590 q 290 351 278 424 q 336 224 303 278 q 422 138 369 169 q 544 107 474 107 q 674 138 614 107 q 781 224 735 169 q 857 351 826 278 q 897 506 888 424 m 1082 506 q 1019 292 1068 389 q 895 126 969 196 q 727 19 821 57 q 529 -19 633 -19 q 333 18 418 -19 q 191 124 247 56 q 111 290 135 193 q 103 506 88 388 q 165 719 117 622 q 288 885 214 815 q 456 992 361 954 q 658 1031 551 1031 q 853 992 768 1031 q 994 885 939 954 q 1073 720 1050 817 q 1082 506 1096 624 z "},"Ú":{"ha":964,"x_min":124,"x_max":997,"o":"m 849 1236 l 725 1114 q 679 1081 704 1093 q 628 1064 654 1069 q 580 1058 603 1058 q 540 1063 557 1058 l 683 1236 l 849 1236 m 479 -19 q 318 8 388 -19 q 204 86 249 35 q 142 212 160 138 q 135 381 124 286 l 213 1010 l 385 1010 l 304 360 q 308 254 297 301 q 343 174 318 207 q 407 124 368 142 q 494 107 446 107 q 585 124 543 107 q 661 174 628 142 q 717 254 694 207 q 746 360 739 301 l 826 1010 l 997 1010 l 919 381 q 872 216 908 290 q 777 90 835 142 q 644 9 719 38 q 479 -19 568 -19 z "},"Û":{"ha":964,"x_min":124,"x_max":997,"o":"m 574 1236 l 692 1236 l 822 1072 l 724 1053 l 619 1132 l 497 1053 l 404 1072 l 574 1236 m 479 -19 q 318 8 388 -19 q 204 86 249 35 q 142 212 160 138 q 135 381 124 286 l 213 1010 l 385 1010 l 304 360 q 308 254 297 301 q 343 174 318 207 q 407 124 368 142 q 494 107 446 107 q 585 124 543 107 q 661 174 628 142 q 717 254 694 207 q 746 360 739 301 l 826 1010 l 997 1010 l 919 381 q 872 216 908 290 q 777 90 835 142 q 644 9 719 38 q 479 -19 568 -19 z "},"Ù":{"ha":964,"x_min":125,"x_max":999,"o":"m 517 1114 l 440 1236 l 606 1236 l 686 1063 q 644 1058 668 1058 q 596 1063 619 1058 q 551 1081 572 1068 q 517 1114 529 1093 m 481 -19 q 319 8 389 -19 q 206 86 250 35 q 143 212 161 138 q 136 381 125 286 l 214 1010 l 385 1010 l 304 360 q 308 254 297 301 q 344 174 318 207 q 408 124 369 142 q 496 107 447 107 q 587 124 544 107 q 663 174 629 142 q 718 254 696 207 q 747 360 740 301 l 828 1010 l 999 1010 l 921 381 q 873 216 910 290 q 778 90 836 142 q 645 9 721 38 q 481 -19 569 -19 z "},"†":{"ha":788,"x_min":78,"x_max":832,"o":"m 185 551 l 78 551 l 93 675 l 343 675 q 283 589 321 626 q 185 551 246 551 m 817 551 l 733 551 q 669 560 696 551 q 626 586 643 569 q 599 625 610 603 q 582 675 589 647 l 832 675 l 817 551 m 569 968 l 446 -42 l 304 -42 l 428 968 l 569 968 z "},"°":{"ha":468,"x_min":132,"x_max":565,"o":"m 138 865 q 165 945 143 908 q 218 1009 186 982 q 290 1052 250 1036 q 374 1068 331 1068 q 449 1054 413 1068 q 513 1015 486 1040 q 552 951 539 989 q 560 865 565 913 q 531 782 554 819 q 476 718 508 744 q 403 677 443 692 q 324 663 363 663 q 246 677 282 663 q 183 718 210 692 q 144 782 157 744 q 138 865 132 819 m 363 981 q 283 947 315 981 q 243 865 250 914 q 262 783 236 815 q 335 751 288 751 q 416 785 383 751 q 456 865 449 818 q 434 950 463 919 q 363 981 406 981 z "},"¢":{"ha":593,"x_min":96,"x_max":675,"o":"m 611 165 q 531 135 569 146 q 461 119 493 124 l 444 -19 l 322 -19 l 339 124 q 235 162 282 133 q 156 236 188 190 q 110 346 124 282 q 106 493 96 410 q 145 635 115 572 q 219 743 175 697 q 317 818 263 789 q 429 858 371 847 l 446 994 l 568 994 l 553 865 q 615 856 583 863 q 675 838 646 849 l 618 722 q 552 736 583 732 q 494 740 521 740 q 360 677 418 740 q 286 493 301 614 q 287 385 279 432 q 314 307 294 339 q 364 259 333 275 q 433 243 394 243 q 498 251 463 243 q 582 279 533 260 l 611 165 z "},"$":{"ha":714,"x_min":51,"x_max":728,"o":"m 469 864 q 362 831 404 864 q 314 750 319 797 q 338 667 308 701 q 416 603 368 633 q 520 542 464 572 q 623 473 576 513 q 697 380 669 433 q 715 249 725 326 q 687 155 710 199 q 627 78 664 111 q 540 22 590 44 q 429 -10 489 0 l 411 -149 l 281 -149 l 297 -15 q 181 5 244 -11 q 51 53 118 21 l 113 169 q 240 124 181 138 q 353 111 300 111 q 428 122 393 111 q 489 153 463 133 q 531 198 515 172 q 551 251 547 224 q 528 339 557 303 q 451 405 499 375 q 347 464 403 435 q 244 531 290 493 q 169 619 197 568 q 150 743 140 669 q 179 837 156 794 q 239 910 203 879 q 322 960 275 942 q 421 986 368 979 l 438 1125 l 568 1125 l 551 985 q 632 972 590 981 q 728 944 674 963 l 667 832 q 561 857 608 850 q 469 864 514 864 z "},"“":{"ha":538,"x_min":143,"x_max":599,"o":"m 332 1010 l 294 711 l 143 711 l 157 819 q 175 898 163 860 q 208 965 188 936 q 260 1006 229 993 q 332 1010 290 1019 m 599 1010 l 561 711 l 411 711 l 425 819 q 443 898 431 860 q 476 965 456 936 q 527 1006 497 993 q 599 1010 557 1019 z "},"”":{"ha":554,"x_min":143,"x_max":599,"o":"m 411 711 l 449 1010 l 599 1010 l 585 901 q 568 823 581 861 q 535 757 556 785 q 483 715 514 729 q 411 711 453 701 m 143 711 l 181 1010 l 332 1010 l 318 901 q 301 823 314 861 q 267 757 289 785 q 215 715 246 729 q 143 711 185 701 z "},"€":{"ha":819,"x_min":8,"x_max":849,"o":"m 486 651 l 701 651 l 689 553 l 356 553 q 406 622 375 593 q 486 651 436 651 m 8 342 l 19 440 l 117 440 q 119 463 118 451 q 121 486 119 475 q 126 519 124 503 q 132 553 128 536 l 33 553 l 46 651 l 160 651 q 231 787 188 725 q 333 894 275 849 q 465 965 392 939 q 624 990 538 990 q 734 980 682 990 q 849 946 786 969 l 790 835 q 694 860 735 854 q 608 867 653 867 q 491 837 544 867 q 397 755 438 807 q 330 633 357 703 q 293 486 303 564 q 291 463 292 475 q 289 440 290 451 l 675 440 l 664 342 l 333 342 q 313 342 322 342 q 292 343 303 343 q 323 250 306 293 q 365 176 340 207 q 426 126 390 144 q 515 108 463 108 q 607 118 563 108 q 707 150 651 128 l 738 39 q 617 -2 675 11 q 500 -15 558 -15 q 342 12 410 -15 q 226 87 274 39 q 153 200 179 135 q 119 342 126 265 l 8 342 z "},"£":{"ha":713,"x_min":58,"x_max":831,"o":"m 690 432 l 594 432 q 546 442 565 432 q 514 469 526 453 q 494 508 501 486 q 482 550 486 529 l 704 550 l 690 432 m 408 274 q 379 215 396 239 q 339 163 363 190 l 310 136 l 343 139 l 688 139 l 671 0 l 58 0 l 69 97 q 205 196 150 135 q 269 336 260 257 q 274 382 272 360 q 276 432 275 404 l 140 432 l 154 550 l 271 550 q 270 624 269 582 q 276 711 271 667 q 315 831 285 779 q 390 919 344 883 q 495 972 436 954 q 621 989 554 989 q 721 978 669 989 q 831 938 772 967 l 774 821 q 680 853 725 844 q 606 861 635 861 q 490 822 533 861 q 438 710 447 782 q 430 590 429 647 q 431 480 431 533 q 428 376 432 426 q 408 274 425 325 z "},"§":{"ha":694,"x_min":49,"x_max":710,"o":"m 558 458 q 546 501 561 483 q 503 535 531 519 q 440 564 475 550 q 367 593 404 578 q 299 549 322 572 q 272 493 276 525 q 285 447 269 467 q 331 411 301 428 q 397 380 360 394 q 472 349 433 365 q 558 458 551 397 m 49 -12 l 107 94 q 227 58 167 69 q 339 46 288 46 q 451 67 408 46 q 499 132 493 89 q 475 194 503 169 q 403 238 447 218 q 308 278 360 258 q 214 324 257 297 q 145 390 171 351 q 126 489 119 429 q 161 567 131 529 q 240 632 192 604 l 275 646 l 249 658 q 192 723 213 686 q 179 813 172 760 q 207 884 183 850 q 269 944 231 918 q 358 985 307 969 q 469 1000 410 1000 q 572 992 517 1000 q 696 964 628 985 l 638 857 q 547 878 586 872 q 472 885 507 885 q 372 867 410 885 q 329 814 335 849 q 353 751 325 776 q 424 706 381 726 q 520 667 468 686 q 615 619 572 647 q 683 551 657 592 q 701 451 710 511 q 667 370 696 407 q 596 308 639 333 l 563 294 l 588 281 q 638 217 619 253 q 650 129 657 181 q 617 48 644 85 q 549 -15 590 11 q 454 -56 507 -42 q 343 -71 401 -71 q 281 -69 315 -71 q 209 -60 247 -67 q 130 -43 171 -54 q 49 -12 89 -32 z "},"´":{"ha":447,"x_min":183,"x_max":500,"o":"m 500 1028 l 368 889 q 322 853 347 867 q 272 835 297 840 q 224 831 247 831 q 183 836 200 832 l 329 1028 l 500 1028 z "},"¨":{"ha":669,"x_min":222,"x_max":665,"o":"m 497 931 q 528 989 501 965 q 589 1013 556 1013 q 644 989 622 1013 q 661 931 665 965 q 630 872 657 896 q 569 849 603 849 q 515 872 536 849 q 497 931 493 896 m 226 931 q 258 989 231 965 q 318 1013 285 1013 q 374 989 353 1013 q 392 931 396 965 q 360 872 388 896 q 299 849 333 849 q 244 872 265 849 q 226 931 222 896 z "},"’":{"ha":282,"x_min":151,"x_max":340,"o":"m 151 711 l 189 1010 l 340 1010 l 326 901 q 310 823 322 861 q 276 757 297 785 q 224 715 254 729 q 151 711 193 701 z "},"‘":{"ha":285,"x_min":142,"x_max":331,"o":"m 331 1010 l 293 711 l 142 711 l 156 819 q 174 898 161 860 q 207 965 186 936 q 258 1006 228 993 q 331 1010 289 1019 z "},"‚":{"ha":274,"x_min":57,"x_max":246,"o":"m 57 -162 l 94 136 l 246 136 l 232 28 q 215 -51 228 -12 q 181 -117 203 -89 q 129 -158 160 -144 q 57 -162 99 -172 z "},"„":{"ha":531,"x_min":38,"x_max":493,"o":"m 304 -162 l 342 136 l 493 136 l 479 28 q 463 -51 475 -12 q 428 -117 450 -89 q 376 -158 407 -144 q 304 -162 346 -172 m 38 -162 l 75 136 l 225 136 l 211 28 q 194 -51 207 -12 q 161 -117 182 -89 q 110 -158 140 -144 q 38 -162 79 -172 z "},"¸":{"ha":694,"x_min":181,"x_max":475,"o":"m 314 -4 l 399 4 l 374 -64 q 413 -76 394 -68 q 447 -99 432 -85 q 468 -131 461 -112 q 472 -171 475 -149 q 451 -225 468 -203 q 407 -262 433 -247 q 350 -285 381 -278 q 289 -292 319 -292 q 239 -286 265 -292 q 181 -265 213 -281 l 211 -194 q 257 -209 236 -206 q 299 -212 278 -212 q 342 -203 322 -212 q 365 -175 363 -194 q 343 -140 368 -151 q 269 -122 318 -128 l 314 -4 z "},"·":{"ha":425,"x_min":154,"x_max":371,"o":"m 160 422 q 198 497 165 467 q 275 526 231 526 q 345 497 319 526 q 365 422 371 467 q 327 350 360 379 q 250 321 294 321 q 180 350 206 321 q 160 422 154 379 z "},"ˆ":{"ha":558,"x_min":186,"x_max":604,"o":"m 360 1032 l 478 1032 l 604 835 l 506 815 l 404 922 l 279 815 l 186 835 l 360 1032 z "},"˜":{"ha":688,"x_min":276,"x_max":724,"o":"m 368 858 l 276 867 q 297 934 282 904 q 332 984 311 964 q 378 1015 353 1004 q 428 1025 403 1025 q 479 1013 458 1025 q 517 988 500 1001 q 549 962 533 974 q 582 950 564 950 q 614 969 600 950 q 635 1019 628 988 l 724 1011 q 701 938 717 968 q 665 888 685 907 q 622 861 644 869 q 579 853 600 853 q 524 865 546 853 q 487 890 503 876 q 458 916 471 904 q 426 928 444 928 q 394 913 411 928 q 368 858 376 897 z "},"¯":{"ha":694,"x_min":258,"x_max":685,"o":"m 672 843 l 258 843 l 271 949 l 685 949 l 672 843 z "},"‰":{"ha":1547,"x_min":61,"x_max":1533,"o":"m 1392 236 q 1385 359 1403 318 q 1328 400 1367 400 q 1263 359 1290 400 q 1224 236 1235 318 q 1232 112 1214 153 q 1288 71 1250 71 q 1354 112 1326 71 q 1392 236 1382 153 m 1518 236 q 1438 48 1503 114 q 1276 -18 1372 -18 q 1131 48 1181 -18 q 1097 236 1082 114 q 1178 424 1113 358 q 1339 490 1243 490 q 1484 424 1435 490 q 1518 236 1533 358 m 896 236 q 890 359 907 318 q 832 400 872 400 q 767 359 794 400 q 728 236 739 318 q 736 112 718 153 q 792 71 754 71 q 859 112 832 71 q 896 236 886 153 m 1022 236 q 942 48 1007 114 q 781 -18 876 -18 q 636 48 685 -18 q 603 236 588 114 q 683 424 618 358 q 843 490 747 490 q 988 424 939 490 q 1022 236 1038 358 m 425 742 q 419 865 436 824 q 363 906 401 906 q 296 865 324 906 q 257 742 268 824 q 265 618 246 658 q 322 578 283 578 q 388 618 361 578 q 425 742 414 658 m 551 742 q 471 553 536 619 q 311 488 406 488 q 166 553 215 488 q 132 742 117 619 q 213 930 147 864 q 374 996 278 996 q 517 930 468 996 q 551 742 567 864 m 61 0 l 960 975 l 1104 975 l 206 0 l 61 0 z "},"Æ":{"ha":1354,"x_min":11,"x_max":1296,"o":"m 1071 592 l 1258 592 l 1243 468 l 914 468 q 938 514 924 492 q 970 553 951 536 q 1014 581 989 571 q 1071 592 1039 592 m 717 0 l 693 754 l 693 794 l 694 847 l 669 796 l 414 381 l 392 353 l 418 356 l 543 356 q 591 344 571 356 q 624 314 611 332 q 646 273 638 296 q 658 229 654 250 l 325 229 l 185 0 l 11 0 l 650 1010 l 1296 1010 l 1281 883 l 853 883 l 875 126 l 1286 126 l 1271 0 l 717 0 z "},"™":{"ha":1011,"x_min":153,"x_max":1019,"o":"m 489 596 l 585 1011 l 704 1011 l 764 725 l 765 706 l 772 725 l 901 1011 l 1019 1011 l 1013 596 l 922 596 l 932 882 l 935 907 l 794 603 l 711 603 l 644 907 q 642 894 643 900 q 639 882 640 889 l 581 596 l 489 596 m 269 940 l 153 940 l 161 1011 l 489 1011 l 481 940 l 365 940 l 322 596 l 226 596 l 269 940 z "},"Ø":{"ha":1099,"x_min":85,"x_max":1097,"o":"m 899 506 q 897 657 910 588 q 854 779 885 726 l 438 194 q 415 234 425 213 q 400 279 404 256 q 400 328 396 303 q 421 381 404 354 l 772 868 q 640 904 717 904 q 509 874 569 904 q 402 790 449 843 q 325 663 356 736 q 285 506 294 590 q 288 351 275 424 q 335 224 301 278 q 421 138 368 169 q 543 107 474 107 q 674 138 614 107 q 781 224 735 169 q 858 351 828 278 q 899 506 889 424 m 1079 1096 l 957 924 q 1065 747 1032 854 q 1081 506 1097 640 q 1017 292 1067 389 q 894 126 968 196 q 726 19 819 57 q 528 -19 632 -19 q 419 -8 469 -19 q 324 22 368 3 l 250 -83 l 107 -83 l 228 86 q 118 262 151 156 q 101 506 85 368 q 164 719 115 622 q 286 885 213 815 q 455 992 360 954 q 657 1031 550 1031 q 858 988 768 1031 l 936 1096 l 1079 1096 z "},"Ÿ":{"ha":917,"x_min":140,"x_max":993,"o":"m 646 1167 q 677 1225 650 1201 q 738 1249 704 1249 q 794 1225 772 1249 q 811 1167 815 1201 q 779 1108 807 1132 q 717 1085 751 1085 q 663 1108 683 1085 q 646 1167 642 1132 m 376 1167 q 408 1225 381 1201 q 467 1249 435 1249 q 523 1225 501 1249 q 540 1167 544 1201 q 508 1108 536 1132 q 446 1085 481 1085 q 393 1108 414 1085 q 376 1167 372 1132 m 624 744 l 804 1010 l 993 1010 l 638 524 q 615 566 626 540 q 599 622 604 592 q 599 683 594 651 q 624 744 604 715 m 332 1010 l 590 469 l 533 0 l 365 0 l 418 440 l 140 1010 l 332 1010 z "},"ÿ":{"ha":735,"x_min":-6,"x_max":813,"o":"m 538 931 q 569 989 542 965 q 629 1013 596 1013 q 685 989 664 1013 q 703 931 707 965 q 672 872 699 896 q 610 849 644 849 q 555 872 576 849 q 538 931 533 896 m 268 931 q 299 989 272 965 q 358 1013 326 1013 q 415 989 393 1013 q 432 931 436 965 q 401 872 428 896 q 339 849 374 849 q 285 872 307 849 q 268 931 264 896 m 129 -218 q 196 -199 167 -218 q 250 -145 225 -181 q 299 -60 275 -110 q 353 51 324 -11 l 643 718 l 813 708 l 478 15 q 399 -135 435 -68 q 322 -247 363 -201 q 232 -318 282 -293 q 114 -343 182 -343 q -6 -319 54 -343 l 47 -207 q 90 -216 69 -214 q 129 -218 110 -218 m 274 718 q 295 608 283 664 q 318 495 307 551 q 337 383 329 439 q 347 275 344 328 q 341 201 347 239 q 323 130 335 164 q 297 67 311 96 q 265 17 282 38 l 93 718 l 274 718 z "},"‡":{"ha":849,"x_min":71,"x_max":869,"o":"m 222 579 l 115 579 l 131 703 l 381 703 q 320 617 357 654 q 222 579 283 579 m 854 579 l 771 579 q 707 588 733 579 q 663 614 681 597 q 635 653 646 631 q 619 703 625 675 l 869 703 l 854 579 m 178 224 l 71 224 l 86 347 l 336 347 q 276 261 314 299 q 178 224 239 224 m 810 224 l 703 224 q 651 234 672 224 q 614 262 629 244 q 590 301 599 279 q 575 347 581 324 l 825 347 l 810 224 m 603 968 l 479 -42 l 338 -42 l 461 968 l 603 968 z "},"•":{"ha":694,"x_min":283,"x_max":539,"o":"m 290 438 q 335 525 297 490 q 425 560 372 560 q 508 525 478 560 q 532 438 539 490 q 487 351 525 385 q 396 318 449 318 q 313 351 343 318 q 290 438 283 385 z "},"¶":{"ha":846,"x_min":224,"x_max":888,"o":"m 446 -42 l 503 422 q 500 424 500 424 q 385 452 438 429 q 297 514 333 475 q 242 606 260 553 q 232 722 224 658 q 269 838 240 782 q 347 935 299 893 q 464 1003 396 978 q 615 1028 532 1028 q 686 1026 653 1028 q 751 1022 719 1025 q 817 1013 783 1018 q 888 1000 850 1008 l 760 -42 l 658 -42 l 775 914 q 717 922 744 919 q 665 925 690 924 l 547 -42 l 446 -42 z "},"ß":{"ha":788,"x_min":106,"x_max":803,"o":"m 350 35 l 406 144 q 483 118 449 125 q 542 111 517 111 q 610 135 581 111 q 644 196 639 158 q 633 253 649 228 q 594 299 618 278 q 542 344 569 321 q 490 396 514 367 q 453 464 467 425 q 447 557 440 503 q 503 672 454 618 q 629 756 551 726 q 644 817 640 783 q 617 903 650 869 q 531 938 585 938 q 421 896 471 938 q 361 771 371 854 l 267 0 q 186 -1 226 0 q 106 -1 146 -1 l 199 756 q 238 887 208 831 q 313 982 268 943 q 414 1040 357 1021 q 535 1060 471 1060 q 647 1041 599 1060 q 727 990 696 1022 q 772 913 758 958 q 779 817 785 868 q 708 665 769 746 q 632 620 660 646 q 600 557 604 594 q 610 499 596 524 q 649 453 625 475 q 702 409 674 432 q 753 356 731 386 q 790 287 776 326 q 796 190 803 247 q 767 105 790 143 q 708 40 743 67 q 631 -2 674 13 q 544 -17 589 -17 q 458 -8 503 -17 q 350 35 413 1 z "},"©":{"ha":1000,"x_min":83,"x_max":1024,"o":"m 553 244 q 463 261 504 244 q 394 310 422 278 q 354 388 367 342 q 349 496 342 435 q 381 603 357 556 q 441 681 406 650 q 521 729 476 713 q 614 746 565 746 q 728 726 669 746 l 690 646 q 604 661 646 661 q 510 616 551 661 q 460 496 469 571 q 480 373 450 418 q 563 328 510 328 q 608 333 582 328 q 668 353 633 338 l 685 276 q 610 251 644 257 q 553 244 575 244 m 600 857 q 460 831 526 857 q 342 756 394 804 q 256 642 290 708 q 213 492 222 575 q 220 344 203 410 q 278 231 238 278 q 378 158 318 183 q 511 132 438 132 q 649 157 583 132 q 765 230 714 182 q 851 345 817 278 q 894 496 885 413 q 887 643 904 576 q 830 758 869 710 q 731 831 790 806 q 600 857 672 857 m 613 953 q 794 918 714 953 q 926 822 874 883 q 1001 676 978 760 q 1011 496 1024 593 q 956 317 1000 401 q 844 171 913 233 q 688 72 776 108 q 500 35 600 35 q 317 69 397 35 q 183 166 236 104 q 107 313 131 228 q 96 496 83 397 q 151 672 107 589 q 265 817 196 754 q 422 916 333 879 q 613 953 511 953 z "},"®":{"ha":1000,"x_min":83,"x_max":1024,"o":"m 758 599 q 726 522 753 554 q 651 478 699 489 q 690 440 678 463 q 707 390 701 418 q 717 330 713 363 q 733 263 721 297 l 625 263 q 613 320 615 290 q 606 377 610 350 q 591 425 601 404 q 557 456 581 446 l 522 456 q 547 501 531 479 q 594 531 564 524 q 634 555 619 536 q 651 599 649 574 q 635 646 656 628 q 572 664 614 664 q 551 663 560 664 q 524 660 543 663 l 475 263 l 372 263 l 429 725 q 508 740 469 735 q 582 744 546 744 q 717 706 668 744 q 758 599 767 667 m 600 857 q 460 831 526 857 q 342 756 394 804 q 256 642 290 708 q 213 492 222 575 q 220 344 203 410 q 278 231 238 278 q 378 158 318 183 q 511 132 438 132 q 649 157 583 132 q 765 230 714 182 q 851 345 817 278 q 894 496 885 413 q 887 643 904 576 q 830 758 869 710 q 731 831 790 806 q 600 857 672 857 m 613 953 q 794 918 714 953 q 926 822 874 883 q 1001 676 978 760 q 1011 496 1024 593 q 956 317 1000 401 q 844 171 913 233 q 688 72 776 108 q 500 35 600 35 q 317 69 397 35 q 183 166 236 104 q 107 313 131 228 q 96 496 83 397 q 151 672 107 589 q 265 817 196 754 q 422 916 333 879 q 613 953 511 953 z "},">":{"ha":851,"x_min":67,"x_max":838,"o":"m 85 156 q 356 265 222 210 q 626 375 490 319 l 663 383 l 628 393 l 142 613 l 160 767 l 838 435 l 825 332 l 67 0 l 85 156 z "},"±":{"ha":789,"x_min":65,"x_max":779,"o":"m 715 0 l 65 0 l 79 118 l 729 118 l 715 0 m 114 407 l 129 524 l 388 524 l 414 742 l 544 742 l 518 524 l 779 524 l 764 407 l 503 407 l 476 186 l 346 186 l 372 407 l 114 407 z "},"¥":{"ha":917,"x_min":142,"x_max":993,"o":"m 625 744 l 806 1010 l 993 1010 l 639 524 q 617 566 628 540 q 601 622 606 592 q 600 683 596 651 q 625 744 604 715 m 197 356 l 207 438 l 418 438 l 418 440 l 142 1010 l 333 1010 l 590 469 l 586 438 l 797 438 l 788 356 l 576 356 l 565 265 l 776 265 l 767 183 l 556 183 l 533 0 l 365 0 l 388 183 l 176 183 l 186 265 l 397 265 l 408 356 l 197 356 z "},"ª":{"ha":732,"x_min":114,"x_max":572,"o":"m 561 725 l 543 586 q 536 487 536 528 q 539 419 536 446 l 453 419 q 431 449 439 431 q 425 486 422 467 l 413 469 q 342 424 378 438 q 267 410 307 410 q 155 447 196 410 q 121 547 114 485 q 142 610 125 582 q 194 658 160 638 q 283 692 229 678 q 413 714 336 706 q 404 692 410 706 q 389 665 399 678 q 365 641 379 651 q 332 628 351 631 q 260 599 281 619 q 238 554 240 579 q 250 510 235 528 q 297 492 265 492 q 363 507 329 492 q 428 556 397 522 l 449 732 q 428 818 456 790 q 344 846 401 846 q 228 824 294 846 l 213 899 q 301 926 261 919 q 374 932 342 932 q 525 878 478 932 q 561 725 572 824 z "},"…":{"ha":1185,"x_min":111,"x_max":1079,"o":"m 868 81 q 906 156 874 125 q 983 186 939 186 q 1053 156 1028 186 q 1074 81 1079 125 q 1035 8 1068 38 q 958 -21 1003 -21 q 888 8 914 -21 q 868 81 863 38 m 493 81 q 531 156 499 125 q 608 186 564 186 q 678 156 653 186 q 699 81 704 125 q 660 8 693 38 q 583 -21 628 -21 q 513 8 539 -21 q 493 81 488 38 m 117 81 q 155 156 122 125 q 232 186 188 186 q 302 156 276 186 q 322 81 328 125 q 284 8 317 38 q 207 -21 251 -21 q 137 8 163 -21 q 117 81 111 38 z "},"Š":{"ha":769,"x_min":74,"x_max":761,"o":"m 578 1057 l 460 1057 l 331 1221 l 428 1240 l 531 1161 l 654 1240 l 749 1221 l 578 1057 m 500 903 q 388 867 431 903 q 339 779 346 832 q 364 693 333 729 q 443 626 394 657 q 549 563 492 594 q 653 490 606 531 q 729 392 701 449 q 747 257 757 336 q 710 145 740 196 q 630 58 679 94 q 515 2 581 22 q 369 -18 449 -18 q 233 -2 310 -18 q 74 54 156 14 l 135 168 q 264 123 201 136 q 378 110 326 110 q 455 121 419 110 q 517 152 490 132 q 560 199 544 172 q 581 256 576 225 q 557 347 588 310 q 478 416 526 385 q 373 477 431 447 q 268 547 315 507 q 192 639 221 586 q 174 768 164 692 q 210 879 182 831 q 283 960 239 928 q 384 1010 328 993 q 503 1028 440 1028 q 624 1019 565 1028 q 761 983 683 1010 l 701 871 q 593 896 643 889 q 500 903 543 903 z "},"‹":{"ha":851,"x_min":297,"x_max":710,"o":"m 575 65 l 297 358 l 647 653 l 710 583 l 497 358 l 654 133 l 575 65 z "},"›":{"ha":851,"x_min":282,"x_max":694,"o":"m 694 358 l 344 65 l 282 133 l 494 358 l 338 583 l 417 653 l 694 358 z "},"»":{"ha":851,"x_min":89,"x_max":868,"o":"m 868 358 l 518 65 l 456 133 l 668 358 l 511 583 l 590 653 l 868 358 m 501 358 l 150 65 l 89 133 l 300 358 l 144 583 l 222 653 l 501 358 z "},"«":{"ha":851,"x_min":122,"x_max":903,"o":"m 769 65 l 490 358 l 842 653 l 903 583 l 692 358 l 847 133 l 769 65 m 401 65 l 122 358 l 474 653 l 535 583 l 324 358 l 479 133 l 401 65 z "},"ƒ":{"ha":728,"x_min":-15,"x_max":831,"o":"m -1 -196 l -15 -89 q 48 -63 18 -78 q 103 -26 78 -49 q 146 28 128 -4 q 175 106 164 60 l 268 525 l 160 525 q 165 572 163 549 q 171 618 168 594 l 294 647 l 303 686 q 351 810 318 754 q 430 906 383 867 q 535 967 476 946 q 661 989 593 989 q 740 981 696 989 q 831 949 783 972 l 768 840 q 703 859 729 854 q 653 864 676 864 q 535 819 588 864 q 465 690 483 775 l 335 104 q 288 -15 319 35 q 213 -101 257 -65 q 115 -159 169 -136 q -1 -196 60 -182 m 633 647 l 703 647 l 688 525 l 476 525 q 503 569 488 547 q 538 608 518 590 q 582 636 558 625 q 633 647 606 647 z "},"Ž":{"ha":831,"x_min":108,"x_max":964,"o":"m 693 1057 l 575 1057 l 446 1221 l 543 1240 l 646 1161 l 769 1240 l 864 1221 l 693 1057 m 265 885 l 281 1010 l 964 1010 l 956 939 l 347 143 l 322 122 l 356 126 l 869 126 l 854 0 l 108 0 l 117 71 l 722 865 l 747 889 l 714 885 l 265 885 z "},"š":{"ha":578,"x_min":39,"x_max":629,"o":"m 456 818 l 336 818 l 213 1015 l 310 1035 l 408 928 l 535 1035 l 629 1015 l 456 818 m 39 44 l 94 160 q 201 123 153 133 q 294 113 250 113 q 380 138 350 113 q 414 196 410 163 q 396 251 418 229 q 339 292 374 274 q 263 330 304 311 q 187 374 221 349 q 133 438 153 400 q 119 532 113 475 q 141 601 124 565 q 192 665 158 636 q 274 712 225 693 q 388 731 322 731 q 478 724 432 731 q 588 694 525 717 l 535 582 q 452 603 486 597 q 385 608 418 608 q 313 590 342 608 q 281 536 285 571 q 299 482 276 504 q 356 441 321 460 q 432 403 390 422 q 508 356 474 383 q 562 291 542 329 q 575 197 582 253 q 544 113 569 151 q 482 45 519 74 q 399 1 444 17 q 306 -14 353 -14 q 188 -4 251 -14 q 39 44 124 6 z "},"–":{"ha":750,"x_min":101,"x_max":706,"o":"m 690 322 l 101 322 l 117 442 l 706 442 l 690 322 z "},"—":{"ha":1179,"x_min":101,"x_max":1143,"o":"m 1128 322 l 101 322 l 117 442 l 1143 442 l 1128 322 z "},"ž":{"ha":622,"x_min":44,"x_max":681,"o":"m 492 818 l 372 818 l 249 1015 l 346 1035 l 444 928 l 571 1035 l 665 1015 l 492 818 m 158 600 l 172 718 l 681 718 l 672 647 l 299 167 q 289 153 293 160 q 279 140 285 147 l 254 117 l 286 121 l 613 121 l 599 0 l 44 0 l 53 71 l 450 581 l 474 604 l 444 600 l 158 600 z "},"¡":{"ha":488,"x_min":42,"x_max":346,"o":"m 135 636 q 173 709 140 681 q 250 738 206 738 q 320 709 294 738 q 340 636 346 681 q 302 562 335 592 q 225 532 269 532 q 155 562 181 532 q 135 636 129 592 m 211 -292 l 42 -292 l 151 422 l 274 422 l 211 -292 z "},"¿":{"ha":810,"x_min":114,"x_max":657,"o":"m 651 635 q 613 561 646 592 q 535 531 579 531 q 465 561 490 531 q 446 635 440 592 q 484 708 451 679 q 561 738 517 738 q 631 708 606 738 q 651 635 657 679 m 392 -307 q 274 -292 326 -307 q 185 -247 221 -276 q 131 -178 149 -218 q 121 -87 114 -137 q 152 8 126 -35 q 212 91 178 51 q 285 167 246 131 q 360 242 325 203 q 419 325 394 282 q 451 421 444 368 l 592 421 q 560 301 583 353 q 505 209 536 250 q 440 135 474 168 q 376 69 406 101 q 324 5 346 38 q 299 -67 303 -28 q 326 -148 292 -117 q 422 -179 360 -179 q 504 -171 461 -179 q 614 -133 547 -162 l 643 -250 q 508 -296 567 -285 q 392 -307 450 -307 z "},"µ":{"ha":768,"x_min":51,"x_max":788,"o":"m 571 106 l 553 76 q 476 11 521 36 q 365 -14 431 -14 q 307 -4 336 -14 q 258 25 278 6 l 242 51 q 240 33 240 42 q 239 14 240 24 l 201 -293 l 51 -293 l 175 718 l 333 718 l 281 292 q 300 159 271 208 q 393 110 329 110 q 455 123 425 110 q 509 158 485 136 q 549 211 533 181 q 569 276 565 242 l 624 718 l 783 718 l 722 215 q 728 133 715 157 q 785 113 742 110 l 788 6 q 738 -7 764 -3 q 696 -11 711 -11 q 622 9 657 -11 q 574 78 586 29 l 571 106 z "},"¦":{"ha":353,"x_min":57,"x_max":394,"o":"m 207 -407 l 57 -407 l 131 196 l 281 196 l 207 -407 m 322 538 l 172 538 l 244 1126 l 394 1126 l 322 538 z "},"¬":{"ha":810,"x_min":121,"x_max":826,"o":"m 136 624 l 826 624 l 776 217 l 644 217 l 679 504 l 121 504 l 136 624 z "},"­":{"ha":521,"x_min":107,"x_max":540,"o":"m 526 364 l 107 364 l 121 482 l 540 482 l 526 364 z "},"Ð":{"ha":990,"x_min":46,"x_max":1060,"o":"m 46 438 l 60 550 l 171 550 l 225 993 q 392 1019 310 1011 q 535 1028 474 1028 q 773 992 671 1028 q 940 888 875 956 q 1033 724 1006 821 q 1044 507 1060 628 q 982 300 1031 396 q 860 134 933 204 q 695 24 788 64 q 501 -17 603 -17 q 424 -12 460 -17 q 331 7 389 -8 q 356 44 342 25 q 390 78 371 63 q 431 103 408 93 q 479 111 453 113 q 492 110 488 110 q 503 110 496 110 q 640 143 578 110 q 747 232 701 176 q 822 359 793 288 q 860 507 850 431 q 857 669 871 596 q 801 793 843 742 q 690 872 760 844 q 519 900 621 900 q 452 897 486 900 q 385 890 418 894 l 343 550 l 638 550 l 624 438 l 329 438 l 276 0 l 104 0 l 157 438 l 46 438 z "},"×":{"ha":789,"x_min":85,"x_max":794,"o":"m 161 97 l 85 185 l 351 425 l 143 663 l 243 750 l 453 514 l 718 750 l 794 663 l 531 425 l 739 185 l 640 97 l 431 335 l 161 97 z "},"ý":{"ha":735,"x_min":-6,"x_max":815,"o":"m 721 1028 l 590 889 q 544 853 569 867 q 494 835 519 840 q 446 831 469 831 q 406 836 422 832 l 550 1028 l 721 1028 m 131 -218 q 197 -199 168 -218 q 250 -145 225 -181 q 299 -60 275 -110 q 353 51 324 -11 l 644 718 l 815 708 l 478 15 q 400 -135 436 -68 q 324 -247 364 -201 q 233 -318 283 -293 q 115 -343 183 -343 q -6 -319 57 -343 l 47 -207 q 91 -216 71 -214 q 131 -218 111 -218 m 275 718 q 297 608 285 664 q 319 495 308 551 q 338 383 331 439 q 347 275 346 328 q 341 201 347 239 q 324 130 335 164 q 298 67 313 96 q 267 17 283 38 l 93 718 l 275 718 z "},"Ý":{"ha":917,"x_min":143,"x_max":994,"o":"m 843 1236 l 719 1114 q 674 1081 699 1093 q 623 1064 649 1069 q 574 1058 597 1058 q 535 1063 551 1058 l 678 1236 l 843 1236 m 625 744 l 806 1010 l 994 1010 l 639 524 q 617 566 628 540 q 601 622 606 592 q 601 683 596 651 q 625 744 606 715 m 335 1010 l 592 469 l 535 0 l 367 0 l 419 440 l 143 1010 l 335 1010 z "},"þ":{"ha":831,"x_min":69,"x_max":819,"o":"m 69 -335 l 240 1053 l 401 1053 l 288 125 q 348 112 318 115 q 407 108 378 108 q 489 128 451 108 q 556 184 526 149 q 604 269 585 219 q 631 376 624 318 q 632 465 636 422 q 613 538 628 507 q 571 588 597 569 q 506 604 544 606 q 471 610 486 603 q 444 629 456 617 q 423 658 432 642 q 406 694 414 675 q 488 720 446 711 q 565 729 531 729 q 677 701 628 729 q 759 626 726 674 q 806 513 792 578 q 811 376 819 449 q 765 219 800 292 q 676 94 731 147 q 549 12 621 42 q 392 -18 476 -18 q 331 -15 360 -18 q 271 -3 301 -11 l 231 -335 l 69 -335 z "},"Þ":{"ha":846,"x_min":110,"x_max":861,"o":"m 853 506 q 810 380 844 435 q 726 285 776 325 q 615 223 676 246 q 492 194 554 200 q 424 194 460 192 q 353 207 389 196 q 376 244 363 225 q 407 279 390 264 q 443 305 424 294 q 486 317 463 315 q 549 333 518 318 q 606 374 581 349 q 650 432 632 399 q 672 506 668 465 q 667 581 678 546 q 631 640 656 615 q 571 680 607 665 q 490 694 535 694 q 425 692 453 694 q 358 686 397 690 l 275 0 l 110 0 l 233 1010 l 399 1010 l 375 817 q 438 821 407 819 q 506 822 469 822 q 658 799 590 822 q 772 735 726 776 q 840 635 818 693 q 853 506 861 576 z "},"ø":{"ha":694,"x_min":57,"x_max":814,"o":"m 614 360 q 616 436 619 400 q 603 500 613 472 l 364 168 q 346 199 354 182 q 335 238 338 217 q 335 280 332 258 q 353 324 339 301 l 542 588 q 464 610 508 610 q 388 592 424 610 q 325 541 353 574 q 278 462 297 508 q 251 360 258 415 q 279 177 238 246 q 403 108 321 108 q 478 126 443 108 q 542 177 514 144 q 588 256 569 210 q 614 360 607 303 m 790 360 q 743 206 779 275 q 652 87 707 136 q 529 10 597 38 q 388 -17 461 -17 q 316 -10 350 -17 q 251 8 282 -3 l 181 -92 l 57 -92 l 167 63 q 90 186 114 111 q 78 360 67 261 q 124 513 88 443 q 215 631 161 582 q 338 708 269 681 q 479 735 406 735 q 628 704 558 735 l 694 796 l 814 796 l 708 647 q 779 526 757 599 q 790 360 801 453 z "},"÷":{"ha":789,"x_min":110,"x_max":774,"o":"m 328 156 q 357 215 332 192 q 417 238 382 238 q 473 215 453 238 q 489 156 493 192 q 459 99 485 121 q 397 76 433 76 q 343 99 363 76 q 328 156 324 121 m 394 686 q 423 744 399 722 q 482 767 447 767 q 538 744 518 767 q 553 686 557 722 q 524 630 549 651 q 463 608 499 608 q 409 630 428 608 q 394 686 390 651 m 110 365 l 124 482 l 774 482 l 760 365 l 110 365 z "},"¤":{"ha":713,"x_min":58,"x_max":771,"o":"m 435 661 q 373 647 403 661 q 320 607 343 632 q 281 547 297 582 q 260 472 265 513 q 263 393 254 428 q 291 334 272 358 q 335 297 310 310 q 389 285 361 285 q 447 299 418 285 q 499 338 475 313 q 540 397 524 363 q 563 475 557 432 q 560 544 567 511 q 538 604 554 578 q 494 646 521 631 q 435 661 468 661 m 447 756 q 535 741 496 756 q 597 704 574 726 l 715 803 l 771 735 l 650 635 q 674 568 665 610 q 675 476 682 526 q 649 380 668 424 q 610 311 631 336 l 706 210 l 632 143 l 540 243 q 467 205 510 219 q 376 190 424 190 q 294 204 332 190 q 232 240 256 218 l 118 142 l 58 211 l 176 310 q 151 377 161 335 q 147 472 140 419 q 174 567 154 525 q 218 635 194 608 l 122 733 l 197 803 l 289 704 q 360 742 319 728 q 447 756 401 756 z "},"¹":{"ha":443,"x_min":225,"x_max":485,"o":"m 413 429 l 292 429 l 346 869 l 260 829 l 225 908 l 426 1010 l 485 1010 l 413 429 z "},"º":{"ha":597,"x_min":121,"x_max":638,"o":"m 254 671 q 269 546 244 594 q 357 497 294 497 q 458 547 419 497 q 506 671 496 597 q 506 738 510 706 q 490 793 503 769 q 456 831 478 817 q 400 844 433 844 q 301 794 339 844 q 254 671 263 743 m 347 408 q 178 477 236 408 q 136 671 121 546 q 165 772 143 725 q 222 855 186 819 q 305 911 257 890 q 411 932 353 932 q 581 862 524 932 q 622 671 638 792 q 594 567 615 615 q 537 484 572 519 q 453 428 501 449 q 347 408 406 408 z "},"²":{"ha":558,"x_min":151,"x_max":578,"o":"m 569 872 q 534 779 563 822 q 467 696 506 736 q 386 617 428 656 q 313 536 344 578 l 299 522 l 317 525 l 528 525 l 517 431 l 151 431 l 158 489 q 254 606 204 554 q 347 701 304 657 q 420 783 390 744 q 456 863 450 822 q 436 917 460 899 q 371 935 413 935 q 272 913 325 935 l 246 988 q 326 1015 286 1007 q 399 1022 365 1022 q 528 983 478 1022 q 569 872 578 944 z "},"³":{"ha":529,"x_min":132,"x_max":538,"o":"m 529 888 q 490 807 524 843 q 406 749 456 771 q 449 731 428 743 q 486 699 471 718 q 509 655 501 681 q 513 599 517 629 q 488 526 508 558 q 434 469 467 493 q 359 431 401 444 q 269 418 317 418 q 188 431 225 418 q 132 457 151 444 l 169 535 q 220 515 193 524 q 279 507 247 507 q 363 535 331 507 q 400 601 394 564 q 268 696 411 696 l 267 767 l 314 785 q 370 813 346 797 q 404 853 394 829 q 411 890 413 872 q 394 919 410 906 q 350 932 378 932 q 299 926 326 932 q 243 911 272 921 l 219 986 q 298 1013 261 1006 q 369 1021 335 1021 q 492 987 446 1021 q 529 888 538 953 z "},"½":{"ha":1060,"x_min":104,"x_max":1015,"o":"m 1007 442 q 972 349 1000 392 q 905 266 943 306 q 825 188 867 226 q 751 108 783 149 l 736 92 l 758 94 l 965 94 l 954 0 l 589 0 l 596 58 q 692 175 642 124 q 785 270 742 226 q 858 353 828 314 q 893 432 888 392 q 874 486 897 468 q 808 504 850 504 q 710 482 763 504 l 683 557 q 763 584 724 576 q 836 592 803 592 q 965 553 915 592 q 1007 442 1015 514 m 329 429 l 208 429 l 263 869 l 176 829 l 142 908 l 343 1010 l 401 1010 l 329 429 m 229 0 l 104 0 l 833 1010 l 958 1010 l 229 0 z "},"¾":{"ha":994,"x_min":90,"x_max":1010,"o":"m 488 888 q 448 807 482 843 q 364 749 414 771 q 408 731 386 743 q 444 699 429 718 q 467 655 460 681 q 471 599 475 629 q 446 526 467 558 q 392 469 425 493 q 317 431 360 444 q 228 418 275 418 q 147 431 183 418 q 90 457 110 444 l 128 535 q 178 515 151 524 q 238 507 204 507 q 319 535 288 507 q 357 601 351 564 q 225 696 368 696 l 225 767 l 272 785 q 327 813 303 797 q 361 853 351 829 q 368 872 367 863 q 369 890 369 881 q 351 919 367 906 q 308 932 336 932 q 258 926 285 932 q 201 911 231 921 l 178 986 q 256 1013 218 1006 q 328 1021 293 1021 q 450 987 404 1021 q 488 888 496 953 m 550 200 l 857 588 l 975 588 l 929 206 l 996 206 l 985 118 l 918 118 l 904 0 l 799 0 l 851 436 l 665 206 l 697 206 q 728 197 715 206 q 751 176 742 189 q 765 147 760 163 q 775 118 771 132 l 540 118 l 550 200 m 281 0 l 154 0 l 883 1010 l 1010 1010 l 281 0 z "},"ð":{"ha":774,"x_min":65,"x_max":803,"o":"m 611 360 q 585 540 625 472 q 465 608 546 608 q 327 540 383 608 q 256 360 271 472 q 282 178 242 246 q 404 110 322 110 q 541 178 485 110 q 611 360 597 246 m 792 360 q 744 206 781 275 q 653 87 708 136 q 531 10 599 38 q 389 -17 463 -17 q 251 9 314 -17 q 147 83 189 35 q 85 201 104 132 q 76 360 65 271 q 123 513 86 443 q 215 631 160 582 q 338 708 269 681 q 481 735 407 735 q 599 701 536 735 q 539 778 571 742 q 476 840 507 815 l 301 763 l 278 835 l 404 893 q 289 961 350 931 l 356 1057 q 449 1009 403 1035 q 536 951 494 983 l 699 1025 l 725 951 l 603 896 q 682 801 643 857 q 749 678 721 746 q 790 529 776 610 q 792 360 803 449 z "},"¼":{"ha":969,"x_min":104,"x_max":958,"o":"m 499 200 l 806 588 l 924 588 l 878 206 l 944 206 l 933 118 l 867 118 l 853 0 l 747 0 l 794 393 l 801 439 l 772 400 l 639 238 l 613 206 l 646 206 q 677 197 664 206 q 699 176 690 189 q 714 147 708 163 q 724 118 719 132 l 489 118 l 499 200 m 329 429 l 208 429 l 263 869 l 176 829 l 142 908 l 343 1010 l 401 1010 l 329 429 m 229 0 l 104 0 l 833 1010 l 958 1010 l 229 0 z "},"a":{"ha":838,"x_min":101,"x_max":808,"o":"m 756 260 q 743 129 747 189 q 746 7 739 69 l 617 0 q 582 53 596 17 q 575 139 568 90 l 631 594 q 576 604 601 601 q 531 607 551 607 q 368 535 431 607 q 290 342 306 464 q 288 257 285 299 q 303 183 290 215 q 340 134 315 151 q 406 121 365 117 q 467 104 443 125 q 513 47 490 83 q 433 8 472 24 q 360 -11 393 -8 q 244 11 294 -17 q 160 89 193 39 q 115 205 128 139 q 110 342 101 271 q 155 497 119 425 q 247 622 190 569 q 378 703 303 674 q 542 733 453 733 q 599 731 571 733 q 659 724 628 729 q 727 711 690 719 q 808 690 764 703 l 756 260 z "},"á":{"ha":838,"x_min":101,"x_max":808,"o":"m 756 260 q 743 129 747 189 q 746 7 739 69 l 617 0 q 582 53 596 17 q 575 139 568 90 l 631 594 q 576 604 601 601 q 531 607 551 607 q 368 535 431 607 q 290 342 306 464 q 288 257 285 299 q 303 183 290 215 q 340 134 315 151 q 406 121 365 117 q 467 104 443 125 q 513 47 490 83 q 433 8 472 24 q 360 -11 393 -8 q 244 11 294 -17 q 160 89 193 39 q 115 205 128 139 q 110 342 101 271 q 155 497 119 425 q 247 622 190 569 q 378 703 303 674 q 542 733 453 733 q 599 731 571 733 q 659 724 628 729 q 727 711 690 719 q 808 690 764 703 l 756 260 m 774 1028 l 643 889 q 597 853 622 867 q 547 835 572 840 q 499 831 522 831 q 458 836 475 832 l 603 1028 l 774 1028 z "},"â":{"ha":838,"x_min":101,"x_max":808,"o":"m 756 260 q 743 129 747 189 q 746 7 739 69 l 617 0 q 582 53 596 17 q 575 139 568 90 l 631 594 q 576 604 601 601 q 531 607 551 607 q 368 535 431 607 q 290 342 306 464 q 288 257 285 299 q 303 183 290 215 q 340 134 315 151 q 406 121 365 117 q 467 104 443 125 q 513 47 490 83 q 433 8 472 24 q 360 -11 393 -8 q 244 11 294 -17 q 160 89 193 39 q 115 205 128 139 q 110 342 101 271 q 155 497 119 425 q 247 622 190 569 q 378 703 303 674 q 542 733 453 733 q 599 731 571 733 q 659 724 628 729 q 727 711 690 719 q 808 690 764 703 l 756 260 m 524 1032 l 642 1032 l 768 835 l 669 815 l 568 922 l 443 815 l 350 835 l 524 1032 z "},"ã":{"ha":838,"x_min":101,"x_max":808,"o":"m 756 260 q 743 129 747 189 q 746 7 739 69 l 617 0 q 582 53 596 17 q 575 139 568 90 l 631 594 q 576 604 601 601 q 531 607 551 607 q 368 535 431 607 q 290 342 306 464 q 288 257 285 299 q 303 183 290 215 q 340 134 315 151 q 406 121 365 117 q 467 104 443 125 q 513 47 490 83 q 433 8 472 24 q 360 -11 393 -8 q 244 11 294 -17 q 160 89 193 39 q 115 205 128 139 q 110 342 101 271 q 155 497 119 425 q 247 622 190 569 q 378 703 303 674 q 542 733 453 733 q 599 731 571 733 q 659 724 628 729 q 727 711 690 719 q 808 690 764 703 l 756 260 m 418 858 l 326 867 q 347 934 332 904 q 382 984 361 964 q 428 1015 403 1004 q 478 1025 453 1025 q 529 1013 508 1025 q 567 988 550 1001 q 599 962 583 974 q 632 950 614 950 q 664 969 650 950 q 685 1019 678 988 l 774 1011 q 751 938 767 968 q 715 888 735 907 q 672 861 694 869 q 629 853 650 853 q 574 865 596 853 q 537 890 553 876 q 508 916 521 904 q 476 928 494 928 q 444 913 461 928 q 418 858 426 897 z "},"ä":{"ha":838,"x_min":101,"x_max":808,"o":"m 756 260 q 743 129 747 189 q 746 7 739 69 l 617 0 q 582 53 596 17 q 575 139 568 90 l 631 594 q 576 604 601 601 q 531 607 551 607 q 368 535 431 607 q 290 342 306 464 q 288 257 285 299 q 303 183 290 215 q 340 134 315 151 q 406 121 365 117 q 467 104 443 125 q 513 47 490 83 q 433 8 472 24 q 360 -11 393 -8 q 244 11 294 -17 q 160 89 193 39 q 115 205 128 139 q 110 342 101 271 q 155 497 119 425 q 247 622 190 569 q 378 703 303 674 q 542 733 453 733 q 599 731 571 733 q 659 724 628 729 q 727 711 690 719 q 808 690 764 703 l 756 260 m 606 931 q 637 989 610 965 q 697 1013 664 1013 q 753 989 732 1013 q 771 931 775 965 q 740 872 767 896 q 678 849 713 849 q 623 872 644 849 q 606 931 601 896 m 336 931 q 367 989 340 965 q 426 1013 394 1013 q 483 989 461 1013 q 500 931 504 965 q 469 872 496 896 q 407 849 442 849 q 353 872 375 849 q 336 931 332 896 z "},"å":{"ha":838,"x_min":101,"x_max":808,"o":"m 756 260 q 743 129 747 189 q 746 7 739 69 l 617 0 q 582 53 596 17 q 575 139 568 90 l 631 594 q 576 604 601 601 q 531 607 551 607 q 368 535 431 607 q 290 342 306 464 q 288 257 285 299 q 303 183 290 215 q 340 134 315 151 q 406 121 365 117 q 467 104 443 125 q 513 47 490 83 q 433 8 472 24 q 360 -11 393 -8 q 244 11 294 -17 q 160 89 193 39 q 115 205 128 139 q 110 342 101 271 q 155 497 119 425 q 247 622 190 569 q 378 703 303 674 q 542 733 453 733 q 599 731 571 733 q 659 724 628 729 q 727 711 690 719 q 808 690 764 703 l 756 260 m 565 851 q 610 869 593 851 q 631 913 628 886 q 621 956 633 939 q 581 974 608 974 q 538 956 556 974 q 517 910 519 938 q 526 869 514 888 q 565 851 539 851 m 557 783 q 456 819 493 783 q 426 910 419 856 q 479 1003 433 967 q 589 1040 525 1040 q 690 1005 654 1040 q 718 911 725 969 q 700 860 714 883 q 664 819 686 836 q 615 793 642 803 q 557 783 588 783 z "},"à":{"ha":838,"x_min":101,"x_max":808,"o":"m 756 260 q 743 129 747 189 q 746 7 739 69 l 617 0 q 582 53 596 17 q 575 139 568 90 l 631 594 q 576 604 601 601 q 531 607 551 607 q 368 535 431 607 q 290 342 306 464 q 288 257 285 299 q 303 183 290 215 q 340 134 315 151 q 406 121 365 117 q 467 104 443 125 q 513 47 490 83 q 433 8 472 24 q 360 -11 393 -8 q 244 11 294 -17 q 160 89 193 39 q 115 205 128 139 q 110 342 101 271 q 155 497 119 425 q 247 622 190 569 q 378 703 303 674 q 542 733 453 733 q 599 731 571 733 q 659 724 628 729 q 727 711 690 719 q 808 690 764 703 l 756 260 m 456 892 l 379 1028 l 544 1028 l 622 836 q 581 832 604 832 q 535 838 558 832 q 492 857 513 844 q 456 892 471 869 z "}}}
